G04*
G04 #@! TF.GenerationSoftware,Altium Limited,Altium Designer,19.1.7 (138)*
G04*
G04 Layer_Physical_Order=2*
G04 Layer_Color=16711680*
%FSLAX25Y25*%
%MOIN*%
G70*
G01*
G75*
%ADD11C,0.00984*%
%ADD12C,0.01000*%
%ADD14C,0.01575*%
%ADD68R,0.39370X0.09213*%
%ADD76R,0.09213X0.39370*%
%ADD87R,0.05906X0.05906*%
%ADD93C,0.00800*%
%ADD94C,0.05906*%
%ADD96R,0.07000X0.07000*%
%ADD97R,0.18110X0.07874*%
%ADD98R,0.07874X0.18110*%
%ADD99R,0.05500X0.05500*%
%ADD100C,0.07000*%
%ADD101C,0.02500*%
%ADD102C,0.05906*%
%ADD103R,0.08465X0.08465*%
%ADD104C,0.08465*%
%ADD105C,0.05512*%
%ADD106R,0.05512X0.05512*%
%ADD107C,0.03000*%
%ADD108C,0.05000*%
G36*
X348486Y213597D02*
X350465Y213122D01*
X352345Y212343D01*
X354080Y211280D01*
X355627Y209958D01*
X356949Y208411D01*
X358013Y206675D01*
X358791Y204795D01*
X359266Y202816D01*
X359421Y200853D01*
X359412Y200787D01*
Y15748D01*
X359421Y15682D01*
X359266Y13719D01*
X358791Y11740D01*
X358013Y9860D01*
X356949Y8125D01*
X355627Y6577D01*
X354080Y5255D01*
X352345Y4192D01*
X350465Y3413D01*
X348486Y2938D01*
X346523Y2784D01*
X346457Y2792D01*
X15748D01*
X15682Y2784D01*
X13719Y2938D01*
X11740Y3413D01*
X9860Y4192D01*
X8125Y5255D01*
X6577Y6577D01*
X5255Y8125D01*
X4192Y9860D01*
X3413Y11740D01*
X2938Y13719D01*
X2784Y15682D01*
X2792Y15748D01*
Y200787D01*
X2784Y200853D01*
X2938Y202816D01*
X3413Y204795D01*
X4192Y206675D01*
X5255Y208411D01*
X6577Y209958D01*
X8125Y211280D01*
X9860Y212343D01*
X11740Y213122D01*
X13719Y213597D01*
X15682Y213752D01*
X15748Y213743D01*
X346457D01*
X346523Y213752D01*
X348486Y213597D01*
D02*
G37*
%LPC*%
G36*
X325458Y211111D02*
X317952D01*
Y208582D01*
X313858D01*
X313390Y208489D01*
X312993Y208223D01*
X311113Y206343D01*
X310600Y206445D01*
X309703Y206267D01*
X308942Y205758D01*
X308433Y204997D01*
X308255Y204100D01*
X308433Y203203D01*
X308942Y202442D01*
X309703Y201933D01*
X310600Y201755D01*
X311497Y201933D01*
X312258Y202442D01*
X312767Y203203D01*
X312945Y204100D01*
X312843Y204613D01*
X314365Y206135D01*
X317952D01*
Y203606D01*
X325458D01*
Y211111D01*
D02*
G37*
G36*
X347295Y211143D02*
X346316Y211014D01*
X345403Y210636D01*
X344619Y210035D01*
X344017Y209251D01*
X343639Y208338D01*
X343510Y207358D01*
X343639Y206379D01*
X344017Y205466D01*
X344619Y204682D01*
X345403Y204080D01*
X346316Y203702D01*
X347295Y203573D01*
X348275Y203702D01*
X349188Y204080D01*
X349972Y204682D01*
X350573Y205466D01*
X350951Y206379D01*
X351080Y207358D01*
X350951Y208338D01*
X350573Y209251D01*
X349972Y210035D01*
X349188Y210636D01*
X348275Y211014D01*
X347295Y211143D01*
D02*
G37*
G36*
X254173Y207959D02*
X253051Y207811D01*
X252005Y207378D01*
X251106Y206689D01*
X250417Y205791D01*
X249984Y204745D01*
X249836Y203622D01*
X249984Y202500D01*
X250417Y201453D01*
X251106Y200555D01*
X252005Y199866D01*
X253051Y199433D01*
X254173Y199285D01*
X255296Y199433D01*
X256342Y199866D01*
X257240Y200555D01*
X257929Y201453D01*
X258363Y202500D01*
X258510Y203622D01*
X258363Y204745D01*
X257929Y205791D01*
X257240Y206689D01*
X256342Y207378D01*
X255296Y207811D01*
X254173Y207959D01*
D02*
G37*
G36*
X244173D02*
X243051Y207811D01*
X242005Y207378D01*
X241106Y206689D01*
X240417Y205791D01*
X239984Y204745D01*
X239836Y203622D01*
X239984Y202500D01*
X240417Y201453D01*
X241106Y200555D01*
X242005Y199866D01*
X243051Y199433D01*
X244173Y199285D01*
X245296Y199433D01*
X246342Y199866D01*
X247240Y200555D01*
X247929Y201453D01*
X248363Y202500D01*
X248510Y203622D01*
X248363Y204745D01*
X247929Y205791D01*
X247240Y206689D01*
X246342Y207378D01*
X245296Y207811D01*
X244173Y207959D01*
D02*
G37*
G36*
X234173D02*
X233051Y207811D01*
X232005Y207378D01*
X231106Y206689D01*
X230417Y205791D01*
X229984Y204745D01*
X229836Y203622D01*
X229984Y202500D01*
X230417Y201453D01*
X231106Y200555D01*
X232005Y199866D01*
X233051Y199433D01*
X234173Y199285D01*
X235296Y199433D01*
X236342Y199866D01*
X237240Y200555D01*
X237929Y201453D01*
X238363Y202500D01*
X238510Y203622D01*
X238363Y204745D01*
X237929Y205791D01*
X237240Y206689D01*
X236342Y207378D01*
X235296Y207811D01*
X234173Y207959D01*
D02*
G37*
G36*
X224173D02*
X223051Y207811D01*
X222005Y207378D01*
X221106Y206689D01*
X220417Y205791D01*
X219984Y204745D01*
X219836Y203622D01*
X219984Y202500D01*
X220417Y201453D01*
X221106Y200555D01*
X222005Y199866D01*
X223051Y199433D01*
X224173Y199285D01*
X225296Y199433D01*
X226342Y199866D01*
X227240Y200555D01*
X227929Y201453D01*
X228363Y202500D01*
X228510Y203622D01*
X228363Y204745D01*
X227929Y205791D01*
X227240Y206689D01*
X226342Y207378D01*
X225296Y207811D01*
X224173Y207959D01*
D02*
G37*
G36*
X214173D02*
X213051Y207811D01*
X212005Y207378D01*
X211106Y206689D01*
X210417Y205791D01*
X209984Y204745D01*
X209836Y203622D01*
X209984Y202500D01*
X210417Y201453D01*
X211106Y200555D01*
X212005Y199866D01*
X213051Y199433D01*
X214173Y199285D01*
X215296Y199433D01*
X216342Y199866D01*
X217240Y200555D01*
X217929Y201453D01*
X218363Y202500D01*
X218510Y203622D01*
X218363Y204745D01*
X217929Y205791D01*
X217240Y206689D01*
X216342Y207378D01*
X215296Y207811D01*
X214173Y207959D01*
D02*
G37*
G36*
X204173D02*
X203051Y207811D01*
X202005Y207378D01*
X201106Y206689D01*
X200417Y205791D01*
X199984Y204745D01*
X199836Y203622D01*
X199984Y202500D01*
X200417Y201453D01*
X201106Y200555D01*
X202005Y199866D01*
X203051Y199433D01*
X204173Y199285D01*
X205296Y199433D01*
X206342Y199866D01*
X207240Y200555D01*
X207929Y201453D01*
X208363Y202500D01*
X208510Y203622D01*
X208363Y204745D01*
X207929Y205791D01*
X207240Y206689D01*
X206342Y207378D01*
X205296Y207811D01*
X204173Y207959D01*
D02*
G37*
G36*
X194173D02*
X193051Y207811D01*
X192005Y207378D01*
X191106Y206689D01*
X190417Y205791D01*
X189984Y204745D01*
X189836Y203622D01*
X189984Y202500D01*
X190417Y201453D01*
X191106Y200555D01*
X192005Y199866D01*
X193051Y199433D01*
X194173Y199285D01*
X195296Y199433D01*
X196342Y199866D01*
X197240Y200555D01*
X197929Y201453D01*
X198363Y202500D01*
X198510Y203622D01*
X198363Y204745D01*
X197929Y205791D01*
X197240Y206689D01*
X196342Y207378D01*
X195296Y207811D01*
X194173Y207959D01*
D02*
G37*
G36*
X184173D02*
X183051Y207811D01*
X182005Y207378D01*
X181106Y206689D01*
X180417Y205791D01*
X179984Y204745D01*
X179836Y203622D01*
X179984Y202500D01*
X180417Y201453D01*
X181106Y200555D01*
X182005Y199866D01*
X183051Y199433D01*
X184173Y199285D01*
X185296Y199433D01*
X186342Y199866D01*
X187240Y200555D01*
X187929Y201453D01*
X188363Y202500D01*
X188510Y203622D01*
X188363Y204745D01*
X187929Y205791D01*
X187240Y206689D01*
X186342Y207378D01*
X185296Y207811D01*
X184173Y207959D01*
D02*
G37*
G36*
X168173D02*
X167051Y207811D01*
X166005Y207378D01*
X165106Y206689D01*
X164417Y205791D01*
X163984Y204745D01*
X163836Y203622D01*
X163984Y202500D01*
X164417Y201453D01*
X165106Y200555D01*
X166005Y199866D01*
X167051Y199433D01*
X168173Y199285D01*
X169296Y199433D01*
X170342Y199866D01*
X171240Y200555D01*
X171929Y201453D01*
X172363Y202500D01*
X172510Y203622D01*
X172363Y204745D01*
X171929Y205791D01*
X171240Y206689D01*
X170342Y207378D01*
X169296Y207811D01*
X168173Y207959D01*
D02*
G37*
G36*
X158173D02*
X157051Y207811D01*
X156005Y207378D01*
X155106Y206689D01*
X154417Y205791D01*
X153984Y204745D01*
X153836Y203622D01*
X153984Y202500D01*
X154417Y201453D01*
X155106Y200555D01*
X156005Y199866D01*
X157051Y199433D01*
X158173Y199285D01*
X159296Y199433D01*
X160342Y199866D01*
X161240Y200555D01*
X161929Y201453D01*
X162363Y202500D01*
X162510Y203622D01*
X162363Y204745D01*
X161929Y205791D01*
X161240Y206689D01*
X160342Y207378D01*
X159296Y207811D01*
X158173Y207959D01*
D02*
G37*
G36*
X148173D02*
X147051Y207811D01*
X146005Y207378D01*
X145106Y206689D01*
X144417Y205791D01*
X143984Y204745D01*
X143836Y203622D01*
X143984Y202500D01*
X144417Y201453D01*
X145106Y200555D01*
X146005Y199866D01*
X147051Y199433D01*
X148173Y199285D01*
X149296Y199433D01*
X150342Y199866D01*
X151240Y200555D01*
X151929Y201453D01*
X152363Y202500D01*
X152510Y203622D01*
X152363Y204745D01*
X151929Y205791D01*
X151240Y206689D01*
X150342Y207378D01*
X149296Y207811D01*
X148173Y207959D01*
D02*
G37*
G36*
X138173D02*
X137051Y207811D01*
X136005Y207378D01*
X135106Y206689D01*
X134417Y205791D01*
X133984Y204745D01*
X133836Y203622D01*
X133984Y202500D01*
X134417Y201453D01*
X135106Y200555D01*
X136005Y199866D01*
X137051Y199433D01*
X138173Y199285D01*
X139296Y199433D01*
X140342Y199866D01*
X141240Y200555D01*
X141929Y201453D01*
X142363Y202500D01*
X142510Y203622D01*
X142363Y204745D01*
X141929Y205791D01*
X141240Y206689D01*
X140342Y207378D01*
X139296Y207811D01*
X138173Y207959D01*
D02*
G37*
G36*
X128173D02*
X127051Y207811D01*
X126005Y207378D01*
X125106Y206689D01*
X124417Y205791D01*
X123984Y204745D01*
X123836Y203622D01*
X123984Y202500D01*
X124417Y201453D01*
X125106Y200555D01*
X126005Y199866D01*
X127051Y199433D01*
X128173Y199285D01*
X129296Y199433D01*
X130342Y199866D01*
X131240Y200555D01*
X131929Y201453D01*
X132363Y202500D01*
X132510Y203622D01*
X132363Y204745D01*
X131929Y205791D01*
X131240Y206689D01*
X130342Y207378D01*
X129296Y207811D01*
X128173Y207959D01*
D02*
G37*
G36*
X118173D02*
X117051Y207811D01*
X116005Y207378D01*
X115106Y206689D01*
X114417Y205791D01*
X113984Y204745D01*
X113836Y203622D01*
X113984Y202500D01*
X114417Y201453D01*
X115106Y200555D01*
X116005Y199866D01*
X117051Y199433D01*
X118173Y199285D01*
X119296Y199433D01*
X120342Y199866D01*
X121240Y200555D01*
X121929Y201453D01*
X122363Y202500D01*
X122510Y203622D01*
X122363Y204745D01*
X121929Y205791D01*
X121240Y206689D01*
X120342Y207378D01*
X119296Y207811D01*
X118173Y207959D01*
D02*
G37*
G36*
X108173D02*
X107051Y207811D01*
X106005Y207378D01*
X105106Y206689D01*
X104417Y205791D01*
X103984Y204745D01*
X103836Y203622D01*
X103984Y202500D01*
X104417Y201453D01*
X105106Y200555D01*
X106005Y199866D01*
X107051Y199433D01*
X108173Y199285D01*
X109296Y199433D01*
X110342Y199866D01*
X111240Y200555D01*
X111929Y201453D01*
X112363Y202500D01*
X112510Y203622D01*
X112363Y204745D01*
X111929Y205791D01*
X111240Y206689D01*
X110342Y207378D01*
X109296Y207811D01*
X108173Y207959D01*
D02*
G37*
G36*
X98173D02*
X97051Y207811D01*
X96005Y207378D01*
X95106Y206689D01*
X94417Y205791D01*
X93984Y204745D01*
X93836Y203622D01*
X93984Y202500D01*
X94417Y201453D01*
X95106Y200555D01*
X96005Y199866D01*
X97051Y199433D01*
X98173Y199285D01*
X99296Y199433D01*
X100342Y199866D01*
X101240Y200555D01*
X101929Y201453D01*
X102363Y202500D01*
X102510Y203622D01*
X102363Y204745D01*
X101929Y205791D01*
X101240Y206689D01*
X100342Y207378D01*
X99296Y207811D01*
X98173Y207959D01*
D02*
G37*
G36*
X88173D02*
X87051Y207811D01*
X86005Y207378D01*
X85106Y206689D01*
X84417Y205791D01*
X83984Y204745D01*
X83836Y203622D01*
X83984Y202500D01*
X84417Y201453D01*
X85106Y200555D01*
X86005Y199866D01*
X87051Y199433D01*
X88173Y199285D01*
X89296Y199433D01*
X90342Y199866D01*
X91240Y200555D01*
X91929Y201453D01*
X92362Y202500D01*
X92510Y203622D01*
X92362Y204745D01*
X91929Y205791D01*
X91240Y206689D01*
X90342Y207378D01*
X89296Y207811D01*
X88173Y207959D01*
D02*
G37*
G36*
X78173D02*
X77051Y207811D01*
X76005Y207378D01*
X75106Y206689D01*
X74417Y205791D01*
X73984Y204745D01*
X73836Y203622D01*
X73984Y202500D01*
X74417Y201453D01*
X75106Y200555D01*
X76005Y199866D01*
X77051Y199433D01*
X78173Y199285D01*
X79296Y199433D01*
X80342Y199866D01*
X81240Y200555D01*
X81929Y201453D01*
X82363Y202500D01*
X82510Y203622D01*
X82363Y204745D01*
X81929Y205791D01*
X81240Y206689D01*
X80342Y207378D01*
X79296Y207811D01*
X78173Y207959D01*
D02*
G37*
G36*
X69600Y199745D02*
X68703Y199567D01*
X67942Y199058D01*
X67434Y198297D01*
X67255Y197400D01*
X67434Y196503D01*
X67942Y195742D01*
X68141Y195609D01*
X68188Y195018D01*
X62705Y189535D01*
X59855D01*
Y194895D01*
X50381D01*
Y175184D01*
X59855D01*
Y181965D01*
X66382D01*
X80547Y167800D01*
X72824Y160076D01*
X61124Y148377D01*
X60522Y147593D01*
X60144Y146680D01*
X60015Y145700D01*
Y128100D01*
X60144Y127120D01*
X60522Y126207D01*
X61124Y125424D01*
X64524Y122023D01*
X65307Y121422D01*
X66220Y121044D01*
X67200Y120915D01*
X100232D01*
X103262Y117885D01*
X103070Y117423D01*
X101556D01*
X101541Y117497D01*
X101033Y118258D01*
X100272Y118767D01*
X99375Y118945D01*
X98478Y118767D01*
X97717Y118258D01*
X97208Y117497D01*
X97030Y116600D01*
X97208Y115703D01*
X97717Y114942D01*
X98478Y114433D01*
X99375Y114255D01*
X100272Y114433D01*
X100808Y114792D01*
X100991Y114751D01*
X101151Y114204D01*
X86432Y99485D01*
X84000D01*
X83020Y99356D01*
X82107Y98978D01*
X81323Y98377D01*
X22483Y39536D01*
X21881Y38752D01*
X21503Y37839D01*
X21374Y36859D01*
Y26532D01*
X19877D01*
Y16468D01*
X29942D01*
Y26532D01*
X28945D01*
Y35292D01*
X85568Y91915D01*
X88000D01*
X88980Y92044D01*
X89893Y92422D01*
X90174Y92638D01*
X110456Y72356D01*
X110981Y72005D01*
X111600Y71882D01*
X112715D01*
X112742Y71842D01*
X113503Y71333D01*
X114400Y71155D01*
X114507Y71176D01*
X114754Y70715D01*
X102935Y58896D01*
X102670Y58500D01*
X102576Y58031D01*
Y12200D01*
X102670Y11732D01*
X102935Y11335D01*
X109235Y5035D01*
X109632Y4770D01*
X110100Y4676D01*
X136451D01*
X136919Y4770D01*
X137316Y5035D01*
X142106Y9824D01*
X143051Y9433D01*
X144173Y9285D01*
X145296Y9433D01*
X146139Y9782D01*
X151758Y4163D01*
X152188Y3875D01*
X152695Y3774D01*
X273700D01*
X274207Y3875D01*
X274637Y4163D01*
X317337Y46863D01*
X317625Y47293D01*
X317725Y47800D01*
Y92414D01*
X318226Y92566D01*
X318442Y92242D01*
X319203Y91733D01*
X320100Y91555D01*
X320997Y91733D01*
X321758Y92242D01*
X321785Y92282D01*
X326045D01*
X333155Y85171D01*
X333681Y84820D01*
X334300Y84697D01*
X335016D01*
X335244Y84146D01*
X335933Y83248D01*
X336831Y82559D01*
X337877Y82126D01*
X339000Y81978D01*
X340123Y82126D01*
X341169Y82559D01*
X342067Y83248D01*
X342756Y84146D01*
X343189Y85192D01*
X343337Y86315D01*
X343189Y87437D01*
X342756Y88484D01*
X342067Y89382D01*
X341169Y90071D01*
X340123Y90504D01*
X339000Y90652D01*
X337877Y90504D01*
X336831Y90071D01*
X335933Y89382D01*
X335244Y88484D01*
X335210Y88401D01*
X334620Y88284D01*
X328865Y94039D01*
X329072Y94539D01*
X335016D01*
X335244Y93989D01*
X335933Y93091D01*
X336831Y92401D01*
X337877Y91968D01*
X339000Y91820D01*
X340123Y91968D01*
X341169Y92401D01*
X342067Y93091D01*
X342756Y93989D01*
X343189Y95035D01*
X343337Y96157D01*
X343189Y97280D01*
X342756Y98326D01*
X342067Y99224D01*
X341169Y99914D01*
X340123Y100347D01*
X339000Y100495D01*
X337877Y100347D01*
X336831Y99914D01*
X335933Y99224D01*
X335244Y98326D01*
X335016Y97776D01*
X329413D01*
X326344Y100844D01*
X325819Y101195D01*
X325200Y101319D01*
X321585D01*
X321558Y101358D01*
X320797Y101866D01*
X319900Y102045D01*
X319003Y101866D01*
X318242Y101358D01*
X318226Y101334D01*
X317725Y101486D01*
Y104114D01*
X318226Y104266D01*
X318242Y104242D01*
X319003Y103733D01*
X319900Y103555D01*
X320797Y103733D01*
X321558Y104242D01*
X321618Y104332D01*
X335037D01*
X335244Y103831D01*
X335933Y102933D01*
X336831Y102244D01*
X337877Y101811D01*
X339000Y101663D01*
X340123Y101811D01*
X341169Y102244D01*
X342067Y102933D01*
X342756Y103831D01*
X343189Y104877D01*
X343337Y106000D01*
X343189Y107123D01*
X342756Y108169D01*
X342067Y109067D01*
X341169Y109756D01*
X340123Y110189D01*
X339000Y110337D01*
X337877Y110189D01*
X336831Y109756D01*
X335933Y109067D01*
X335244Y108169D01*
X334995Y107569D01*
X321543D01*
X320797Y108067D01*
X320760Y108074D01*
X320654Y108605D01*
X321158Y108942D01*
X321185Y108982D01*
X328700D01*
X329319Y109105D01*
X329844Y109456D01*
X334200Y113811D01*
X334700Y113604D01*
Y111542D01*
X343300D01*
Y120142D01*
X334700D01*
Y117461D01*
X333943D01*
X333323Y117338D01*
X332798Y116987D01*
X328030Y112218D01*
X321185D01*
X321158Y112258D01*
X320397Y112767D01*
X319500Y112945D01*
X318603Y112767D01*
X318226Y112515D01*
X317725Y112782D01*
Y137901D01*
X319337Y139513D01*
X319625Y139943D01*
X319725Y140450D01*
Y142263D01*
X320226Y142589D01*
X320900Y142455D01*
X320947Y142464D01*
X323241Y140171D01*
X323766Y139820D01*
X324385Y139697D01*
X335516D01*
X335744Y139146D01*
X336433Y138248D01*
X337331Y137559D01*
X338377Y137126D01*
X339500Y136978D01*
X340622Y137126D01*
X341669Y137559D01*
X342567Y138248D01*
X343256Y139146D01*
X343689Y140192D01*
X343837Y141315D01*
X343689Y142438D01*
X343256Y143483D01*
X342567Y144382D01*
X341669Y145071D01*
X340622Y145504D01*
X339500Y145652D01*
X338377Y145504D01*
X337331Y145071D01*
X336433Y144382D01*
X335744Y143483D01*
X335516Y142933D01*
X325055D01*
X323236Y144753D01*
X323245Y144800D01*
X323067Y145697D01*
X322558Y146458D01*
X321797Y146967D01*
X320900Y147145D01*
X320003Y146967D01*
X319426Y146581D01*
X318925Y146816D01*
Y158514D01*
X319426Y158666D01*
X319642Y158342D01*
X320403Y157833D01*
X321300Y157655D01*
X322197Y157833D01*
X322958Y158342D01*
X322985Y158381D01*
X324500D01*
X325119Y158505D01*
X325644Y158855D01*
X326170Y159381D01*
X335516D01*
X335744Y158831D01*
X336433Y157933D01*
X337331Y157244D01*
X338377Y156811D01*
X339500Y156663D01*
X340622Y156811D01*
X341669Y157244D01*
X342567Y157933D01*
X343256Y158831D01*
X343689Y159878D01*
X343837Y161000D01*
X343689Y162122D01*
X343256Y163169D01*
X342567Y164067D01*
X341669Y164756D01*
X340622Y165189D01*
X339500Y165337D01*
X338377Y165189D01*
X337331Y164756D01*
X336433Y164067D01*
X335744Y163169D01*
X335516Y162619D01*
X325500D01*
X324881Y162495D01*
X324356Y162144D01*
X323830Y161618D01*
X322985D01*
X322958Y161658D01*
X322197Y162167D01*
X321300Y162345D01*
X320403Y162167D01*
X319642Y161658D01*
X319426Y161335D01*
X318925Y161486D01*
Y179900D01*
X318825Y180407D01*
X318537Y180837D01*
X311828Y187546D01*
X312115Y188239D01*
X312126Y188324D01*
X318189D01*
X318427Y187749D01*
X319028Y186965D01*
X319812Y186364D01*
X320725Y185986D01*
X321705Y185857D01*
X322684Y185986D01*
X323597Y186364D01*
X324381Y186965D01*
X324983Y187749D01*
X325260Y188418D01*
X343740D01*
X344017Y187749D01*
X344619Y186965D01*
X345403Y186364D01*
X346316Y185986D01*
X347295Y185857D01*
X348275Y185986D01*
X349188Y186364D01*
X349972Y186965D01*
X350573Y187749D01*
X350951Y188662D01*
X351080Y189642D01*
X350951Y190621D01*
X350573Y191534D01*
X349972Y192318D01*
X349188Y192920D01*
X348275Y193298D01*
X347295Y193427D01*
X346316Y193298D01*
X345403Y192920D01*
X344619Y192318D01*
X344017Y191534D01*
X343740Y190865D01*
X325260D01*
X324983Y191534D01*
X324381Y192318D01*
X323597Y192920D01*
X322684Y193298D01*
X321705Y193427D01*
X320725Y193298D01*
X319812Y192920D01*
X319028Y192318D01*
X318427Y191534D01*
X318189Y190959D01*
X311633D01*
X311254Y191454D01*
X310564Y191982D01*
X309762Y192315D01*
X308900Y192429D01*
X308038Y192315D01*
X307236Y191982D01*
X306546Y191454D01*
X306017Y190764D01*
X305685Y189962D01*
X305572Y189100D01*
X305685Y188239D01*
X306017Y187436D01*
X306546Y186746D01*
X307236Y186217D01*
X308038Y185885D01*
X308900Y185772D01*
X309743Y185882D01*
X316274Y179351D01*
Y176421D01*
X315774Y176214D01*
X303718Y188270D01*
Y193315D01*
X303758Y193342D01*
X304267Y194103D01*
X304445Y195000D01*
X304267Y195897D01*
X303758Y196658D01*
X302997Y197167D01*
X302100Y197345D01*
X301203Y197167D01*
X300442Y196658D01*
X299933Y195897D01*
X299755Y195000D01*
X299933Y194103D01*
X300442Y193342D01*
X300482Y193315D01*
Y187600D01*
X300605Y186981D01*
X300956Y186456D01*
X313481Y173930D01*
Y169170D01*
X311130Y166818D01*
X295085D01*
X295058Y166858D01*
X294297Y167367D01*
X293400Y167545D01*
X292503Y167367D01*
X291742Y166858D01*
X291233Y166097D01*
X291055Y165200D01*
X291233Y164303D01*
X291742Y163542D01*
X292503Y163033D01*
X293400Y162855D01*
X294297Y163033D01*
X295058Y163542D01*
X295085Y163582D01*
X299230D01*
X303232Y159580D01*
Y144050D01*
X303355Y143431D01*
X303706Y142905D01*
X308182Y138430D01*
Y136885D01*
X308142Y136858D01*
X307633Y136097D01*
X307455Y135200D01*
X307633Y134303D01*
X308142Y133542D01*
X308903Y133033D01*
X309800Y132855D01*
X310697Y133033D01*
X311458Y133542D01*
X311967Y134303D01*
X312145Y135200D01*
X311967Y136097D01*
X311458Y136858D01*
X311419Y136885D01*
Y138924D01*
X311918Y139076D01*
X312142Y138742D01*
X312903Y138233D01*
X313800Y138055D01*
X314575Y138209D01*
X314950Y137999D01*
X315074Y137884D01*
Y101387D01*
X314575Y101235D01*
X314158Y101858D01*
X313397Y102366D01*
X312500Y102545D01*
X311603Y102366D01*
X310842Y101858D01*
X310815Y101819D01*
X298689D01*
X284563Y115945D01*
X284038Y116295D01*
X283418Y116419D01*
X252385D01*
X252358Y116458D01*
X251597Y116967D01*
X250700Y117145D01*
X249803Y116967D01*
X249042Y116458D01*
X248533Y115697D01*
X248468Y115369D01*
X247926Y115205D01*
X238824Y124307D01*
Y125586D01*
X243513Y130277D01*
X246018D01*
X246487Y130370D01*
X246884Y130635D01*
X249365Y133116D01*
X249630Y133513D01*
X249724Y133982D01*
Y141300D01*
X249630Y141768D01*
X249365Y142165D01*
X249223Y142307D01*
Y143800D01*
X249130Y144268D01*
X248865Y144665D01*
X248711Y144820D01*
X248967Y145203D01*
X249145Y146100D01*
X248967Y146997D01*
X248458Y147758D01*
X247697Y148267D01*
X246800Y148445D01*
X245903Y148267D01*
X245142Y147758D01*
X244633Y146997D01*
X244455Y146100D01*
X244609Y145324D01*
X244331Y144824D01*
X242651D01*
X237238Y150236D01*
X237251Y150361D01*
X237725Y150777D01*
X246900D01*
X247368Y150870D01*
X247765Y151135D01*
X249637Y153007D01*
X250150Y152905D01*
X251047Y153083D01*
X251808Y153592D01*
X252317Y154353D01*
X252495Y155250D01*
X252317Y156147D01*
X251808Y156908D01*
X251047Y157417D01*
X250150Y157595D01*
X249253Y157417D01*
X248492Y156908D01*
X247983Y156147D01*
X247805Y155250D01*
X247907Y154737D01*
X246393Y153224D01*
X238232D01*
X236868Y154587D01*
X236970Y155100D01*
X236792Y155997D01*
X236283Y156758D01*
X235522Y157267D01*
X234625Y157445D01*
X233728Y157267D01*
X232967Y156758D01*
X232458Y155997D01*
X232399Y155699D01*
X231921Y155554D01*
X217609Y169865D01*
X217212Y170130D01*
X216744Y170223D01*
X210297D01*
X210247Y170723D01*
X210297Y170733D01*
X211058Y171242D01*
X211567Y172003D01*
X211745Y172900D01*
X211567Y173797D01*
X211058Y174558D01*
X211018Y174585D01*
Y180594D01*
X245701D01*
X246321Y180717D01*
X246846Y181068D01*
X247267Y181490D01*
X247810Y181325D01*
X247933Y180703D01*
X248442Y179942D01*
X249203Y179433D01*
X250100Y179255D01*
X250997Y179433D01*
X251758Y179942D01*
X252049Y180377D01*
X256328D01*
X256555Y180100D01*
X256733Y179203D01*
X257242Y178442D01*
X258003Y177933D01*
X258900Y177755D01*
X259797Y177933D01*
X260558Y178442D01*
X261067Y179203D01*
X261245Y180100D01*
X261067Y180997D01*
X260558Y181758D01*
X259797Y182267D01*
X258900Y182445D01*
X258387Y182343D01*
X258265Y182465D01*
X257868Y182730D01*
X257400Y182824D01*
X252049D01*
X251758Y183258D01*
X251525Y183414D01*
X251677Y183914D01*
X259433D01*
X260052Y184037D01*
X260577Y184388D01*
X269353Y193164D01*
X269400Y193155D01*
X270297Y193333D01*
X271058Y193842D01*
X271567Y194603D01*
X271745Y195500D01*
X271567Y196397D01*
X271058Y197158D01*
X270297Y197667D01*
X269400Y197845D01*
X268503Y197667D01*
X267742Y197158D01*
X267233Y196397D01*
X267055Y195500D01*
X267064Y195453D01*
X264367Y192756D01*
X263906Y193002D01*
X264045Y193700D01*
X263867Y194597D01*
X263358Y195358D01*
X262597Y195867D01*
X261700Y196045D01*
X260803Y195867D01*
X260042Y195358D01*
X259533Y194597D01*
X259355Y193700D01*
X259457Y193187D01*
X258882Y192612D01*
X258408Y192845D01*
X258510Y193622D01*
X258363Y194745D01*
X257929Y195791D01*
X257240Y196689D01*
X256342Y197378D01*
X255296Y197811D01*
X254173Y197959D01*
X253051Y197811D01*
X252005Y197378D01*
X251106Y196689D01*
X250417Y195791D01*
X249984Y194745D01*
X249836Y193622D01*
X249984Y192499D01*
X250417Y191454D01*
X251106Y190555D01*
X252005Y189866D01*
X253051Y189433D01*
X254173Y189285D01*
X254486Y189326D01*
X254784Y188861D01*
X254710Y188743D01*
X248198D01*
X247730Y188650D01*
X247333Y188385D01*
X245875Y186927D01*
X245558Y186958D01*
X244797Y187467D01*
X243900Y187645D01*
X243003Y187467D01*
X242242Y186958D01*
X241733Y186197D01*
X241555Y185300D01*
X241733Y184403D01*
X241821Y184272D01*
X241585Y183831D01*
X223815D01*
X223579Y184272D01*
X223667Y184403D01*
X223845Y185300D01*
X223667Y186197D01*
X223158Y186958D01*
X222397Y187467D01*
X221500Y187645D01*
X220603Y187467D01*
X219842Y186958D01*
X219551Y186523D01*
X157002D01*
X151971Y191554D01*
X152363Y192499D01*
X152510Y193622D01*
X152363Y194745D01*
X151929Y195791D01*
X151240Y196689D01*
X150342Y197378D01*
X149296Y197811D01*
X148173Y197959D01*
X147051Y197811D01*
X146005Y197378D01*
X145106Y196689D01*
X144417Y195791D01*
X143984Y194745D01*
X143836Y193622D01*
X143984Y192499D01*
X144417Y191454D01*
X145106Y190555D01*
X146005Y189866D01*
X147051Y189433D01*
X148173Y189285D01*
X149296Y189433D01*
X150241Y189824D01*
X155630Y184435D01*
X156027Y184170D01*
X156495Y184076D01*
X200721D01*
X200928Y183577D01*
X194874Y177522D01*
X194523Y176997D01*
X194400Y176378D01*
Y162994D01*
X193959Y162759D01*
X193797Y162867D01*
X192900Y163045D01*
X192003Y162867D01*
X191242Y162358D01*
X190951Y161924D01*
X179919D01*
X179451Y161830D01*
X179054Y161565D01*
X174235Y156746D01*
X173970Y156349D01*
X173877Y155881D01*
Y155407D01*
X172835Y154365D01*
X172570Y153968D01*
X172476Y153500D01*
Y153182D01*
X171976Y153031D01*
X171958Y153058D01*
X171643Y153269D01*
X170789Y154123D01*
X170934Y154601D01*
X171097Y154633D01*
X171858Y155142D01*
X172367Y155903D01*
X172545Y156800D01*
X172367Y157697D01*
X171858Y158458D01*
X171097Y158967D01*
X170200Y159145D01*
X169687Y159043D01*
X146665Y182065D01*
X146268Y182330D01*
X145800Y182423D01*
X126407D01*
X123943Y184887D01*
X124045Y185400D01*
X123867Y186297D01*
X123358Y187058D01*
X122597Y187567D01*
X121700Y187745D01*
X120803Y187567D01*
X120042Y187058D01*
X119533Y186297D01*
X119355Y185400D01*
X119533Y184503D01*
X120042Y183742D01*
X120803Y183233D01*
X121700Y183055D01*
X122213Y183157D01*
X123862Y181508D01*
X123698Y180965D01*
X123203Y180867D01*
X122442Y180358D01*
X121933Y179597D01*
X121755Y178700D01*
X121933Y177803D01*
X122442Y177042D01*
X123203Y176533D01*
X124100Y176355D01*
X124997Y176533D01*
X125336Y176760D01*
X125786Y176459D01*
X125655Y175800D01*
X125833Y174903D01*
X126342Y174142D01*
X127103Y173633D01*
X128000Y173455D01*
X128897Y173633D01*
X129658Y174142D01*
X129949Y174576D01*
X144812D01*
X159411Y159977D01*
X159265Y159499D01*
X159103Y159467D01*
X158342Y158958D01*
X157833Y158197D01*
X157655Y157300D01*
X157833Y156403D01*
X158342Y155642D01*
X158776Y155351D01*
Y153979D01*
X158276Y153772D01*
X141683Y170365D01*
X141287Y170630D01*
X140818Y170723D01*
X138582D01*
X138113Y170630D01*
X137716Y170365D01*
X128779Y161428D01*
X128047Y161917D01*
X127150Y162095D01*
X126253Y161917D01*
X125492Y161408D01*
X124983Y160647D01*
X124805Y159750D01*
X124983Y158853D01*
X125492Y158092D01*
X126253Y157583D01*
X127150Y157405D01*
X128047Y157583D01*
X128362Y157192D01*
X117703Y146534D01*
X117438Y146137D01*
X117345Y145669D01*
Y73627D01*
X117227Y73557D01*
X116683Y73813D01*
X116567Y74397D01*
X116058Y75158D01*
X115297Y75666D01*
X114400Y75845D01*
X113503Y75666D01*
X112742Y75158D01*
X112249Y75140D01*
X92521Y94868D01*
X111177Y113523D01*
X111778Y114307D01*
X112156Y115220D01*
X112285Y116200D01*
Y118000D01*
X112156Y118980D01*
X111778Y119893D01*
X111177Y120677D01*
X104476Y127376D01*
X103693Y127978D01*
X102780Y128356D01*
X101800Y128485D01*
X68768D01*
X67585Y129668D01*
Y144132D01*
X71253Y147800D01*
X71715Y147609D01*
Y145000D01*
X71844Y144020D01*
X72222Y143107D01*
X72824Y142324D01*
X73607Y141722D01*
X74520Y141344D01*
X75500Y141215D01*
X76480Y141344D01*
X77393Y141722D01*
X78176Y142324D01*
X78778Y143107D01*
X79156Y144020D01*
X79285Y145000D01*
Y155832D01*
X88497Y165044D01*
X90256D01*
Y167378D01*
X90356Y167620D01*
X90485Y168600D01*
X90356Y169580D01*
X90256Y169822D01*
Y172156D01*
X87922D01*
X87680Y172256D01*
X86700Y172385D01*
X86672Y172381D01*
X70626Y188426D01*
X69843Y189028D01*
X68930Y189406D01*
X67950Y189535D01*
X66819D01*
X66627Y189997D01*
X70465Y193835D01*
X70730Y194232D01*
X70824Y194700D01*
Y195451D01*
X71258Y195742D01*
X71767Y196503D01*
X71945Y197400D01*
X71767Y198297D01*
X71258Y199058D01*
X70497Y199567D01*
X69600Y199745D01*
D02*
G37*
G36*
X244173Y197959D02*
X243051Y197811D01*
X242005Y197378D01*
X241106Y196689D01*
X240417Y195791D01*
X239984Y194745D01*
X239836Y193622D01*
X239984Y192499D01*
X240417Y191454D01*
X241106Y190555D01*
X242005Y189866D01*
X243051Y189433D01*
X244173Y189285D01*
X245296Y189433D01*
X246342Y189866D01*
X247240Y190555D01*
X247929Y191454D01*
X248363Y192499D01*
X248510Y193622D01*
X248363Y194745D01*
X247929Y195791D01*
X247240Y196689D01*
X246342Y197378D01*
X245296Y197811D01*
X244173Y197959D01*
D02*
G37*
G36*
X234173D02*
X233051Y197811D01*
X232005Y197378D01*
X231106Y196689D01*
X230417Y195791D01*
X229984Y194745D01*
X229836Y193622D01*
X229984Y192499D01*
X230417Y191454D01*
X231106Y190555D01*
X232005Y189866D01*
X233051Y189433D01*
X234173Y189285D01*
X235296Y189433D01*
X236342Y189866D01*
X237240Y190555D01*
X237929Y191454D01*
X238363Y192499D01*
X238510Y193622D01*
X238363Y194745D01*
X237929Y195791D01*
X237240Y196689D01*
X236342Y197378D01*
X235296Y197811D01*
X234173Y197959D01*
D02*
G37*
G36*
X224173D02*
X223051Y197811D01*
X222005Y197378D01*
X221106Y196689D01*
X220417Y195791D01*
X219984Y194745D01*
X219836Y193622D01*
X219984Y192499D01*
X220417Y191454D01*
X221106Y190555D01*
X222005Y189866D01*
X223051Y189433D01*
X224173Y189285D01*
X225296Y189433D01*
X226342Y189866D01*
X227240Y190555D01*
X227929Y191454D01*
X228363Y192499D01*
X228510Y193622D01*
X228363Y194745D01*
X227929Y195791D01*
X227240Y196689D01*
X226342Y197378D01*
X225296Y197811D01*
X224173Y197959D01*
D02*
G37*
G36*
X214173D02*
X213051Y197811D01*
X212005Y197378D01*
X211106Y196689D01*
X210417Y195791D01*
X209984Y194745D01*
X209836Y193622D01*
X209984Y192499D01*
X210417Y191454D01*
X211106Y190555D01*
X212005Y189866D01*
X213051Y189433D01*
X214173Y189285D01*
X215296Y189433D01*
X216342Y189866D01*
X217240Y190555D01*
X217929Y191454D01*
X218363Y192499D01*
X218510Y193622D01*
X218363Y194745D01*
X217929Y195791D01*
X217240Y196689D01*
X216342Y197378D01*
X215296Y197811D01*
X214173Y197959D01*
D02*
G37*
G36*
X204173D02*
X203051Y197811D01*
X202005Y197378D01*
X201106Y196689D01*
X200417Y195791D01*
X199984Y194745D01*
X199836Y193622D01*
X199984Y192499D01*
X200417Y191454D01*
X201106Y190555D01*
X202005Y189866D01*
X203051Y189433D01*
X204173Y189285D01*
X205296Y189433D01*
X206342Y189866D01*
X207240Y190555D01*
X207929Y191454D01*
X208363Y192499D01*
X208510Y193622D01*
X208363Y194745D01*
X207929Y195791D01*
X207240Y196689D01*
X206342Y197378D01*
X205296Y197811D01*
X204173Y197959D01*
D02*
G37*
G36*
X194173D02*
X193051Y197811D01*
X192005Y197378D01*
X191106Y196689D01*
X190417Y195791D01*
X189984Y194745D01*
X189836Y193622D01*
X189984Y192499D01*
X190417Y191454D01*
X191106Y190555D01*
X192005Y189866D01*
X193051Y189433D01*
X194173Y189285D01*
X195296Y189433D01*
X196342Y189866D01*
X197240Y190555D01*
X197929Y191454D01*
X198363Y192499D01*
X198510Y193622D01*
X198363Y194745D01*
X197929Y195791D01*
X197240Y196689D01*
X196342Y197378D01*
X195296Y197811D01*
X194173Y197959D01*
D02*
G37*
G36*
X184173D02*
X183051Y197811D01*
X182005Y197378D01*
X181106Y196689D01*
X180417Y195791D01*
X179984Y194745D01*
X179836Y193622D01*
X179984Y192499D01*
X180417Y191454D01*
X181106Y190555D01*
X182005Y189866D01*
X183051Y189433D01*
X184173Y189285D01*
X185296Y189433D01*
X186342Y189866D01*
X187240Y190555D01*
X187929Y191454D01*
X188363Y192499D01*
X188510Y193622D01*
X188363Y194745D01*
X187929Y195791D01*
X187240Y196689D01*
X186342Y197378D01*
X185296Y197811D01*
X184173Y197959D01*
D02*
G37*
G36*
X168173D02*
X167051Y197811D01*
X166005Y197378D01*
X165106Y196689D01*
X164417Y195791D01*
X163984Y194745D01*
X163836Y193622D01*
X163984Y192499D01*
X164417Y191454D01*
X165106Y190555D01*
X166005Y189866D01*
X167051Y189433D01*
X168173Y189285D01*
X169296Y189433D01*
X170342Y189866D01*
X171240Y190555D01*
X171929Y191454D01*
X172363Y192499D01*
X172510Y193622D01*
X172363Y194745D01*
X171929Y195791D01*
X171240Y196689D01*
X170342Y197378D01*
X169296Y197811D01*
X168173Y197959D01*
D02*
G37*
G36*
X158173D02*
X157051Y197811D01*
X156005Y197378D01*
X155106Y196689D01*
X154417Y195791D01*
X153984Y194745D01*
X153836Y193622D01*
X153984Y192499D01*
X154417Y191454D01*
X155106Y190555D01*
X156005Y189866D01*
X157051Y189433D01*
X158173Y189285D01*
X159296Y189433D01*
X160342Y189866D01*
X161240Y190555D01*
X161929Y191454D01*
X162363Y192499D01*
X162510Y193622D01*
X162363Y194745D01*
X161929Y195791D01*
X161240Y196689D01*
X160342Y197378D01*
X159296Y197811D01*
X158173Y197959D01*
D02*
G37*
G36*
X138173D02*
X137051Y197811D01*
X136005Y197378D01*
X135106Y196689D01*
X134417Y195791D01*
X133984Y194745D01*
X133836Y193622D01*
X133984Y192499D01*
X134417Y191454D01*
X135106Y190555D01*
X136005Y189866D01*
X137051Y189433D01*
X138173Y189285D01*
X139296Y189433D01*
X140342Y189866D01*
X141240Y190555D01*
X141929Y191454D01*
X142363Y192499D01*
X142510Y193622D01*
X142363Y194745D01*
X141929Y195791D01*
X141240Y196689D01*
X140342Y197378D01*
X139296Y197811D01*
X138173Y197959D01*
D02*
G37*
G36*
X128173D02*
X127051Y197811D01*
X126005Y197378D01*
X125106Y196689D01*
X124417Y195791D01*
X123984Y194745D01*
X123836Y193622D01*
X123984Y192499D01*
X124417Y191454D01*
X125106Y190555D01*
X126005Y189866D01*
X127051Y189433D01*
X128173Y189285D01*
X129296Y189433D01*
X130342Y189866D01*
X131240Y190555D01*
X131929Y191454D01*
X132363Y192499D01*
X132510Y193622D01*
X132363Y194745D01*
X131929Y195791D01*
X131240Y196689D01*
X130342Y197378D01*
X129296Y197811D01*
X128173Y197959D01*
D02*
G37*
G36*
X118173D02*
X117051Y197811D01*
X116005Y197378D01*
X115106Y196689D01*
X114417Y195791D01*
X113984Y194745D01*
X113836Y193622D01*
X113984Y192499D01*
X114417Y191454D01*
X115106Y190555D01*
X116005Y189866D01*
X117051Y189433D01*
X118173Y189285D01*
X119296Y189433D01*
X120342Y189866D01*
X121240Y190555D01*
X121929Y191454D01*
X122363Y192499D01*
X122510Y193622D01*
X122363Y194745D01*
X121929Y195791D01*
X121240Y196689D01*
X120342Y197378D01*
X119296Y197811D01*
X118173Y197959D01*
D02*
G37*
G36*
X108173D02*
X107051Y197811D01*
X106005Y197378D01*
X105106Y196689D01*
X104417Y195791D01*
X103984Y194745D01*
X103836Y193622D01*
X103984Y192499D01*
X104417Y191454D01*
X105106Y190555D01*
X106005Y189866D01*
X107051Y189433D01*
X108173Y189285D01*
X109296Y189433D01*
X110342Y189866D01*
X111240Y190555D01*
X111929Y191454D01*
X112363Y192499D01*
X112510Y193622D01*
X112363Y194745D01*
X111929Y195791D01*
X111240Y196689D01*
X110342Y197378D01*
X109296Y197811D01*
X108173Y197959D01*
D02*
G37*
G36*
X98173D02*
X97051Y197811D01*
X96005Y197378D01*
X95106Y196689D01*
X94417Y195791D01*
X93984Y194745D01*
X93836Y193622D01*
X93984Y192499D01*
X94417Y191454D01*
X95106Y190555D01*
X96005Y189866D01*
X97051Y189433D01*
X98173Y189285D01*
X99296Y189433D01*
X100342Y189866D01*
X101240Y190555D01*
X101929Y191454D01*
X102363Y192499D01*
X102510Y193622D01*
X102363Y194745D01*
X101929Y195791D01*
X101240Y196689D01*
X100342Y197378D01*
X99296Y197811D01*
X98173Y197959D01*
D02*
G37*
G36*
X88173D02*
X87051Y197811D01*
X86005Y197378D01*
X85106Y196689D01*
X84417Y195791D01*
X83984Y194745D01*
X83836Y193622D01*
X83984Y192499D01*
X84417Y191454D01*
X85106Y190555D01*
X86005Y189866D01*
X87051Y189433D01*
X88173Y189285D01*
X89296Y189433D01*
X90342Y189866D01*
X91240Y190555D01*
X91929Y191454D01*
X92362Y192499D01*
X92510Y193622D01*
X92362Y194745D01*
X91929Y195791D01*
X91240Y196689D01*
X90342Y197378D01*
X89296Y197811D01*
X88173Y197959D01*
D02*
G37*
G36*
X78173D02*
X77051Y197811D01*
X76005Y197378D01*
X75106Y196689D01*
X74417Y195791D01*
X73984Y194745D01*
X73836Y193622D01*
X73984Y192499D01*
X74417Y191454D01*
X75106Y190555D01*
X76005Y189866D01*
X77051Y189433D01*
X78173Y189285D01*
X79296Y189433D01*
X80342Y189866D01*
X81240Y190555D01*
X81929Y191454D01*
X82363Y192499D01*
X82510Y193622D01*
X82363Y194745D01*
X81929Y195791D01*
X81240Y196689D01*
X80342Y197378D01*
X79296Y197811D01*
X78173Y197959D01*
D02*
G37*
G36*
X35252Y195095D02*
X30815D01*
Y185539D01*
X35252D01*
Y195095D01*
D02*
G37*
G36*
X29815D02*
X25378D01*
Y185539D01*
X29815D01*
Y195095D01*
D02*
G37*
G36*
X35252Y184539D02*
X30815D01*
Y174984D01*
X35252D01*
Y184539D01*
D02*
G37*
G36*
X29815D02*
X25378D01*
Y174984D01*
X29815D01*
Y184539D01*
D02*
G37*
G36*
X343800Y175143D02*
X335200D01*
Y172418D01*
X324535D01*
X324145Y172700D01*
X323967Y173597D01*
X323458Y174358D01*
X322697Y174867D01*
X321800Y175045D01*
X320903Y174867D01*
X320142Y174358D01*
X319633Y173597D01*
X319455Y172700D01*
X319633Y171803D01*
X320142Y171042D01*
X320903Y170533D01*
X321800Y170355D01*
X321847Y170364D01*
X322555Y169656D01*
X323081Y169305D01*
X323700Y169182D01*
X335200D01*
Y166542D01*
X343800D01*
Y175143D01*
D02*
G37*
G36*
X73421Y172322D02*
Y169100D01*
X76643D01*
X76580Y169580D01*
X76201Y170494D01*
X75599Y171279D01*
X74815Y171881D01*
X73901Y172259D01*
X73421Y172322D01*
D02*
G37*
G36*
X72421D02*
X71940Y172259D01*
X71026Y171881D01*
X70242Y171279D01*
X69640Y170494D01*
X69261Y169580D01*
X69198Y169100D01*
X72421D01*
Y172322D01*
D02*
G37*
G36*
X53756Y171079D02*
X44201D01*
Y166642D01*
X53756D01*
Y171079D01*
D02*
G37*
G36*
X43201D02*
X33646D01*
Y166642D01*
X43201D01*
Y171079D01*
D02*
G37*
G36*
X76643Y168100D02*
X73421D01*
Y164877D01*
X73901Y164941D01*
X74815Y165319D01*
X75599Y165921D01*
X76201Y166706D01*
X76580Y167620D01*
X76643Y168100D01*
D02*
G37*
G36*
X72421D02*
X69198D01*
X69261Y167620D01*
X69640Y166706D01*
X70242Y165921D01*
X71026Y165319D01*
X71940Y164941D01*
X72421Y164877D01*
Y168100D01*
D02*
G37*
G36*
X53756Y165642D02*
X44201D01*
Y161205D01*
X53756D01*
Y165642D01*
D02*
G37*
G36*
X43201D02*
X33646D01*
Y161205D01*
X43201D01*
Y165642D01*
D02*
G37*
G36*
X242100Y159549D02*
Y157600D01*
X244050D01*
X243955Y158075D01*
X243402Y158902D01*
X242576Y159455D01*
X242100Y159549D01*
D02*
G37*
G36*
X241100D02*
X240624Y159455D01*
X239798Y158902D01*
X239245Y158075D01*
X239151Y157600D01*
X241100D01*
Y159549D01*
D02*
G37*
G36*
X244050Y156600D02*
X242100D01*
Y154650D01*
X242576Y154745D01*
X243402Y155298D01*
X243955Y156124D01*
X244050Y156600D01*
D02*
G37*
G36*
X241100D02*
X239151D01*
X239245Y156124D01*
X239798Y155298D01*
X240624Y154745D01*
X241100Y154650D01*
Y156600D01*
D02*
G37*
G36*
X339500Y155495D02*
X338377Y155347D01*
X337331Y154913D01*
X336433Y154224D01*
X335744Y153326D01*
X335516Y152776D01*
X323830D01*
X323708Y152958D01*
X322947Y153467D01*
X322050Y153645D01*
X321153Y153467D01*
X320392Y152958D01*
X319883Y152197D01*
X319705Y151300D01*
X319883Y150403D01*
X320392Y149642D01*
X321153Y149133D01*
X322050Y148955D01*
X322947Y149133D01*
X323554Y149539D01*
X335516D01*
X335744Y148989D01*
X336433Y148091D01*
X337331Y147401D01*
X338377Y146968D01*
X339500Y146820D01*
X340622Y146968D01*
X341669Y147401D01*
X342567Y148091D01*
X343256Y148989D01*
X343689Y150035D01*
X343837Y151157D01*
X343689Y152280D01*
X343256Y153326D01*
X342567Y154224D01*
X341669Y154913D01*
X340622Y155347D01*
X339500Y155495D01*
D02*
G37*
G36*
X254600Y146445D02*
X253703Y146267D01*
X252942Y145758D01*
X252433Y144997D01*
X252255Y144100D01*
X252433Y143203D01*
X252942Y142442D01*
X253477Y142085D01*
Y139682D01*
X253142Y139458D01*
X252633Y138697D01*
X252455Y137800D01*
X252633Y136903D01*
X253142Y136142D01*
X253903Y135633D01*
X254800Y135455D01*
X255697Y135633D01*
X256458Y136142D01*
X256967Y136903D01*
X257145Y137800D01*
X256967Y138697D01*
X256458Y139458D01*
X255924Y139815D01*
Y142218D01*
X256258Y142442D01*
X256767Y143203D01*
X256945Y144100D01*
X256767Y144997D01*
X256258Y145758D01*
X255497Y146267D01*
X254600Y146445D01*
D02*
G37*
G36*
X262100Y122049D02*
Y120100D01*
X264050D01*
X263955Y120575D01*
X263402Y121402D01*
X262576Y121955D01*
X262100Y122049D01*
D02*
G37*
G36*
X261100D02*
X260625Y121955D01*
X259798Y121402D01*
X259245Y120575D01*
X259151Y120100D01*
X261100D01*
Y122049D01*
D02*
G37*
G36*
X264050Y119100D02*
X262100D01*
Y117150D01*
X262576Y117245D01*
X263402Y117798D01*
X263955Y118624D01*
X264050Y119100D01*
D02*
G37*
G36*
X261100D02*
X259151D01*
X259245Y118624D01*
X259798Y117798D01*
X260625Y117245D01*
X261100Y117150D01*
Y119100D01*
D02*
G37*
G36*
X73100Y108445D02*
X72203Y108267D01*
X71442Y107758D01*
X70934Y106997D01*
X70755Y106100D01*
X70833Y105708D01*
X49851Y84725D01*
X45581D01*
X45358Y85058D01*
X44597Y85567D01*
X43700Y85745D01*
X42803Y85567D01*
X42042Y85058D01*
X41533Y84297D01*
X41355Y83400D01*
X41533Y82503D01*
X42042Y81742D01*
X42803Y81234D01*
X43700Y81055D01*
X44597Y81234D01*
X45358Y81742D01*
X45581Y82074D01*
X50400D01*
X50907Y82175D01*
X51337Y82463D01*
X72707Y103833D01*
X73100Y103755D01*
X73997Y103933D01*
X74758Y104442D01*
X75266Y105203D01*
X75445Y106100D01*
X75266Y106997D01*
X74758Y107758D01*
X73997Y108267D01*
X73100Y108445D01*
D02*
G37*
G36*
X345000Y64128D02*
X336400D01*
Y61818D01*
X323285D01*
X323258Y61858D01*
X322497Y62366D01*
X321600Y62545D01*
X320703Y62366D01*
X319942Y61858D01*
X319433Y61097D01*
X319255Y60200D01*
X319433Y59303D01*
X319942Y58542D01*
X320703Y58034D01*
X321600Y57855D01*
X322497Y58034D01*
X323258Y58542D01*
X323285Y58582D01*
X336400D01*
Y55528D01*
X345000D01*
Y64128D01*
D02*
G37*
G36*
X321700Y57145D02*
X320803Y56967D01*
X320042Y56458D01*
X319533Y55697D01*
X319355Y54800D01*
X319533Y53903D01*
X320042Y53142D01*
X320803Y52634D01*
X321700Y52455D01*
X322597Y52634D01*
X323358Y53142D01*
X323385Y53181D01*
X330430D01*
X332288Y51323D01*
X332274Y51203D01*
X331725Y50802D01*
X331643Y50819D01*
X323185D01*
X323158Y50858D01*
X322397Y51367D01*
X321500Y51545D01*
X320603Y51367D01*
X319842Y50858D01*
X319333Y50097D01*
X319155Y49200D01*
X319333Y48303D01*
X319842Y47542D01*
X320603Y47033D01*
X321500Y46855D01*
X322397Y47033D01*
X323158Y47542D01*
X323185Y47581D01*
X330972D01*
X336738Y41815D01*
X336511Y41265D01*
X336363Y40143D01*
X336511Y39020D01*
X336944Y37974D01*
X337633Y37076D01*
X338531Y36386D01*
X339578Y35953D01*
X340700Y35805D01*
X341823Y35953D01*
X342869Y36386D01*
X343767Y37076D01*
X344456Y37974D01*
X344889Y39020D01*
X345037Y40143D01*
X344889Y41265D01*
X344456Y42311D01*
X343767Y43209D01*
X342869Y43899D01*
X341823Y44332D01*
X340700Y44480D01*
X339578Y44332D01*
X339027Y44104D01*
X335270Y47862D01*
X335283Y47982D01*
X335832Y48383D01*
X335915Y48366D01*
X336716D01*
X336944Y47817D01*
X337633Y46918D01*
X338531Y46229D01*
X339578Y45796D01*
X340700Y45648D01*
X341823Y45796D01*
X342869Y46229D01*
X343767Y46918D01*
X344456Y47817D01*
X344889Y48862D01*
X345037Y49985D01*
X344889Y51108D01*
X344456Y52154D01*
X343767Y53052D01*
X342869Y53741D01*
X341823Y54174D01*
X340700Y54322D01*
X339578Y54174D01*
X338531Y53741D01*
X337633Y53052D01*
X336944Y52154D01*
X336885Y52011D01*
X336295Y51894D01*
X332244Y55944D01*
X331719Y56295D01*
X331100Y56419D01*
X323385D01*
X323358Y56458D01*
X322597Y56967D01*
X321700Y57145D01*
D02*
G37*
G36*
X23350Y49550D02*
X16250D01*
Y42450D01*
X23350D01*
Y49550D01*
D02*
G37*
G36*
X321500Y45745D02*
X320603Y45567D01*
X319842Y45058D01*
X319333Y44297D01*
X319155Y43400D01*
X319333Y42503D01*
X319842Y41742D01*
X320603Y41233D01*
X321500Y41055D01*
X322397Y41233D01*
X323158Y41742D01*
X323185Y41781D01*
X327530D01*
X334926Y34385D01*
Y30300D01*
X335050Y29681D01*
X335400Y29155D01*
X335926Y28805D01*
X336545Y28681D01*
X336716D01*
X336944Y28131D01*
X337633Y27233D01*
X338531Y26544D01*
X339578Y26111D01*
X340700Y25963D01*
X341823Y26111D01*
X342869Y26544D01*
X343767Y27233D01*
X344456Y28131D01*
X344889Y29177D01*
X345037Y30300D01*
X344889Y31422D01*
X344456Y32469D01*
X343767Y33367D01*
X342869Y34056D01*
X341823Y34489D01*
X340700Y34637D01*
X339578Y34489D01*
X338663Y34111D01*
X338163Y34341D01*
Y35055D01*
X338040Y35675D01*
X337689Y36200D01*
X329345Y44545D01*
X328819Y44895D01*
X328200Y45019D01*
X323185D01*
X323158Y45058D01*
X322397Y45567D01*
X321500Y45745D01*
D02*
G37*
G36*
X57229Y56585D02*
X56249Y56456D01*
X55337Y56078D01*
X54553Y55476D01*
X38124Y39047D01*
X37522Y38263D01*
X37144Y37350D01*
X37015Y36371D01*
Y26100D01*
X37126Y25254D01*
X36911Y25089D01*
X36104Y24038D01*
X35597Y22814D01*
X35424Y21500D01*
X35597Y20186D01*
X36104Y18962D01*
X36911Y17911D01*
X37962Y17104D01*
X39186Y16597D01*
X40500Y16424D01*
X41814Y16597D01*
X43038Y17104D01*
X44089Y17911D01*
X44896Y18962D01*
X45403Y20186D01*
X45576Y21500D01*
X45403Y22814D01*
X44896Y24038D01*
X44319Y24789D01*
X44456Y25120D01*
X44585Y26100D01*
Y34803D01*
X59906Y50124D01*
X60507Y50907D01*
X60885Y51820D01*
X61014Y52800D01*
X60885Y53780D01*
X60507Y54693D01*
X59906Y55476D01*
X59122Y56078D01*
X58209Y56456D01*
X57229Y56585D01*
D02*
G37*
%LPD*%
G36*
X207782Y174585D02*
X207742Y174558D01*
X207233Y173797D01*
X207055Y172900D01*
X207233Y172003D01*
X207742Y171242D01*
X208503Y170733D01*
X208553Y170723D01*
X208503Y170223D01*
X202549D01*
X202258Y170658D01*
X201497Y171167D01*
X200600Y171345D01*
X199703Y171167D01*
X198942Y170658D01*
X198433Y169897D01*
X198255Y169000D01*
X198433Y168103D01*
X198942Y167342D01*
X199703Y166833D01*
X199835Y166807D01*
X199980Y166329D01*
X198099Y164447D01*
X197637Y164639D01*
Y175707D01*
X202911Y180982D01*
X207782D01*
Y174585D01*
D02*
G37*
G36*
X156476Y152112D02*
Y148049D01*
X156042Y147758D01*
X155533Y146997D01*
X155355Y146100D01*
X155533Y145203D01*
X156042Y144442D01*
X156803Y143933D01*
X156965Y143901D01*
X157111Y143423D01*
X146135Y132447D01*
X145870Y132050D01*
X145776Y131582D01*
Y128610D01*
X145335Y128374D01*
X145197Y128467D01*
X144300Y128645D01*
X143403Y128467D01*
X142642Y127958D01*
X142133Y127197D01*
X141955Y126300D01*
X142133Y125403D01*
X142429Y124960D01*
X134135Y116665D01*
X133870Y116268D01*
X133776Y115800D01*
Y108986D01*
X133276Y108835D01*
X132858Y109461D01*
X132097Y109969D01*
X131200Y110147D01*
X130303Y109969D01*
X129542Y109461D01*
X129323Y109134D01*
X128823Y109286D01*
Y131893D01*
X135259Y138329D01*
X135797Y138436D01*
X136558Y138944D01*
X137067Y139705D01*
X137245Y140602D01*
X137067Y141500D01*
X136558Y142261D01*
X135797Y142769D01*
X135069Y142914D01*
X134934Y143425D01*
X135258Y143642D01*
X135767Y144403D01*
X135945Y145300D01*
X135767Y146197D01*
X135258Y146958D01*
X134497Y147467D01*
X133600Y147645D01*
X132703Y147467D01*
X131942Y146958D01*
X131433Y146197D01*
X131255Y145300D01*
X131433Y144403D01*
X131569Y144200D01*
X120435Y133065D01*
X120292Y132852D01*
X119792Y133003D01*
Y145162D01*
X139187Y164557D01*
X139700Y164455D01*
X140597Y164633D01*
X141358Y165142D01*
X141867Y165903D01*
X141899Y166066D01*
X142377Y166211D01*
X156476Y152112D01*
D02*
G37*
G36*
X225728Y158285D02*
X225537Y157824D01*
X216843D01*
X216607Y158265D01*
X216767Y158503D01*
X216945Y159400D01*
X216767Y160297D01*
X216258Y161058D01*
X215497Y161567D01*
X214600Y161745D01*
X214087Y161643D01*
X208565Y167165D01*
X208399Y167277D01*
X208550Y167777D01*
X216237D01*
X225728Y158285D01*
D02*
G37*
G36*
X196890Y155076D02*
X196855Y154900D01*
X197033Y154003D01*
X197542Y153242D01*
X198303Y152733D01*
X199200Y152555D01*
X200097Y152733D01*
X200858Y153242D01*
X200885Y153281D01*
X205804D01*
X207718Y151368D01*
X207526Y150906D01*
X196201D01*
X193531Y153577D01*
X193738Y154077D01*
X194677D01*
X195145Y154170D01*
X195542Y154435D01*
X196429Y155322D01*
X196890Y155076D01*
D02*
G37*
G36*
X316274Y166679D02*
Y143960D01*
X316375Y143453D01*
X316663Y143023D01*
X317074Y142611D01*
Y140999D01*
X316625Y140550D01*
X316083Y140714D01*
X315967Y141297D01*
X315458Y142058D01*
X315023Y142349D01*
Y143800D01*
X314930Y144268D01*
X314665Y144665D01*
X313524Y145807D01*
Y151651D01*
X313958Y151942D01*
X314467Y152703D01*
X314645Y153600D01*
X314467Y154497D01*
X313958Y155258D01*
X313197Y155767D01*
X312300Y155945D01*
X311403Y155767D01*
X310642Y155258D01*
X310133Y154497D01*
X309955Y153600D01*
X310133Y152703D01*
X310642Y151942D01*
X311076Y151651D01*
Y145300D01*
X311170Y144832D01*
X311435Y144435D01*
X312577Y143293D01*
Y142349D01*
X312142Y142058D01*
X311633Y141297D01*
X311455Y140400D01*
X311460Y140372D01*
X310989Y140177D01*
X310945Y140244D01*
X306469Y144720D01*
Y160250D01*
X306345Y160869D01*
X305995Y161395D01*
X304269Y163120D01*
X304461Y163582D01*
X311800D01*
X312419Y163705D01*
X312945Y164056D01*
X315774Y166886D01*
X316274Y166679D01*
D02*
G37*
G36*
X180803Y144733D02*
X181661Y144563D01*
X187718Y138506D01*
X187526Y138045D01*
X186144D01*
X182936Y141253D01*
X182945Y141300D01*
X182767Y142197D01*
X182258Y142958D01*
X181497Y143467D01*
X180600Y143645D01*
X179703Y143467D01*
X178942Y142958D01*
X178433Y142197D01*
X178255Y141300D01*
X178433Y140403D01*
X178942Y139642D01*
X179703Y139133D01*
X180600Y138955D01*
X180647Y138964D01*
X184330Y135282D01*
X184855Y134931D01*
X185474Y134808D01*
X201260D01*
X201879Y134931D01*
X202404Y135282D01*
X207917Y140795D01*
X209292Y140785D01*
X209558Y140283D01*
X209233Y139797D01*
X209055Y138900D01*
X209233Y138003D01*
X209742Y137242D01*
X210503Y136733D01*
X211400Y136555D01*
X212297Y136733D01*
X213058Y137242D01*
X213349Y137677D01*
X216331D01*
X216508Y137457D01*
X216512Y137342D01*
X216400Y136872D01*
X215698Y136402D01*
X215145Y135575D01*
X215051Y135100D01*
X217500D01*
Y134100D01*
X215051D01*
X215145Y133624D01*
X215422Y133211D01*
X214600Y132389D01*
Y130200D01*
X216989D01*
X217534Y130745D01*
X217994Y130498D01*
X217955Y130300D01*
X218133Y129403D01*
X218642Y128642D01*
X219403Y128133D01*
X220300Y127955D01*
X221197Y128133D01*
X221958Y128642D01*
X222467Y129403D01*
X222508Y129613D01*
X222987Y129758D01*
X223493Y129252D01*
X222988Y128497D01*
X222810Y127600D01*
X222988Y126703D01*
X223497Y125942D01*
X224257Y125433D01*
X225155Y125255D01*
X226052Y125433D01*
X226813Y125942D01*
X226846Y125991D01*
X227419Y126105D01*
X227944Y126455D01*
X228644Y127155D01*
X228995Y127681D01*
X229118Y128300D01*
X228995Y128919D01*
X228805Y129204D01*
X228891Y129801D01*
X228927Y129853D01*
X229358Y130142D01*
X229867Y130903D01*
X230045Y131800D01*
X229867Y132697D01*
X229358Y133458D01*
X228597Y133967D01*
X228395Y134007D01*
X227914Y134488D01*
X228078Y135030D01*
X228597Y135133D01*
X229358Y135642D01*
X229636Y136058D01*
X230107Y135863D01*
X230055Y135600D01*
X230233Y134703D01*
X230742Y133942D01*
X231503Y133433D01*
X232400Y133255D01*
X233297Y133433D01*
X234058Y133942D01*
X234567Y134703D01*
X234745Y135600D01*
X234713Y135759D01*
X235163Y136060D01*
X235503Y135833D01*
X236400Y135655D01*
X237297Y135833D01*
X238058Y136342D01*
X238567Y137103D01*
X238745Y138000D01*
X238567Y138897D01*
X238058Y139658D01*
X237976Y139713D01*
X237895Y140119D01*
X237683Y140438D01*
X238071Y140756D01*
X240530Y138298D01*
X240750Y138150D01*
X240878Y137571D01*
X234704Y131397D01*
X234704Y131397D01*
X233435Y130128D01*
X233435Y130128D01*
X233435Y130128D01*
X233308Y129938D01*
X233170Y129732D01*
X233170Y129731D01*
X233170Y129731D01*
X233127Y129515D01*
X233077Y129263D01*
X233077Y129263D01*
X233077Y129263D01*
Y122551D01*
X213349Y102823D01*
X207849D01*
X207558Y103258D01*
X206797Y103767D01*
X205900Y103945D01*
X205003Y103767D01*
X204242Y103258D01*
X203733Y102497D01*
X203555Y101600D01*
X203733Y100703D01*
X204242Y99942D01*
X204677Y99651D01*
Y92800D01*
X204770Y92332D01*
X205035Y91935D01*
X219809Y77160D01*
X219533Y76747D01*
X219355Y75850D01*
X219533Y74953D01*
X220042Y74192D01*
X220803Y73684D01*
X221700Y73505D01*
X222597Y73684D01*
X223358Y74192D01*
X223867Y74953D01*
X224037Y75808D01*
X224428Y76055D01*
X224473Y76079D01*
X224856Y75696D01*
X225033Y74803D01*
X225542Y74042D01*
X226303Y73533D01*
X227200Y73355D01*
X228097Y73533D01*
X228858Y74042D01*
X229367Y74803D01*
X229455Y75247D01*
X229750Y75370D01*
X230218Y75276D01*
X232351D01*
X232642Y74842D01*
X233403Y74334D01*
X234300Y74155D01*
X235197Y74334D01*
X235958Y74842D01*
X236467Y75603D01*
X236645Y76500D01*
X236467Y77397D01*
X235958Y78158D01*
X235197Y78667D01*
X234300Y78845D01*
X233403Y78667D01*
X232642Y78158D01*
X232351Y77723D01*
X230725D01*
X214344Y94104D01*
X214243Y94613D01*
X216407Y96776D01*
X242482D01*
X242950Y96870D01*
X243347Y97135D01*
X248865Y102653D01*
X249130Y103050D01*
X249223Y103518D01*
Y107587D01*
X249724Y107820D01*
X250303Y107433D01*
X251200Y107255D01*
X252097Y107433D01*
X252858Y107942D01*
X252885Y107982D01*
X279530D01*
X290964Y96547D01*
X290955Y96500D01*
X291133Y95603D01*
X291642Y94842D01*
X292403Y94333D01*
X293300Y94155D01*
X294197Y94333D01*
X294958Y94842D01*
X295467Y95603D01*
X295645Y96500D01*
X295467Y97397D01*
X294958Y98158D01*
X294197Y98667D01*
X293300Y98845D01*
X293253Y98836D01*
X281345Y110745D01*
X280819Y111095D01*
X280200Y111219D01*
X252885D01*
X252858Y111258D01*
X252097Y111767D01*
X251200Y111945D01*
X250303Y111767D01*
X249724Y111380D01*
X249223Y111613D01*
Y112490D01*
X249664Y112726D01*
X249803Y112633D01*
X250700Y112455D01*
X251597Y112633D01*
X252358Y113142D01*
X252385Y113181D01*
X282748D01*
X296874Y99056D01*
X297399Y98705D01*
X298018Y98581D01*
X310815D01*
X310842Y98542D01*
X311603Y98033D01*
X312500Y97855D01*
X313397Y98033D01*
X314158Y98542D01*
X314575Y99165D01*
X315074Y99013D01*
Y48349D01*
X273151Y6425D01*
X153244D01*
X148013Y11656D01*
X148363Y12500D01*
X148510Y13622D01*
X148363Y14745D01*
X147929Y15791D01*
X147240Y16689D01*
X146342Y17378D01*
X145296Y17811D01*
X144173Y17959D01*
X143051Y17811D01*
X142005Y17378D01*
X141106Y16689D01*
X140417Y15791D01*
X139984Y14745D01*
X139836Y13622D01*
X139984Y12500D01*
X140375Y11554D01*
X135944Y7124D01*
X110607D01*
X105024Y12707D01*
Y45493D01*
X105485Y45684D01*
X122335Y28835D01*
X122732Y28570D01*
X123200Y28477D01*
X174600D01*
X175068Y28570D01*
X175465Y28835D01*
X177087Y30457D01*
X177600Y30355D01*
X178497Y30533D01*
X179258Y31042D01*
X179767Y31803D01*
X179945Y32700D01*
X179767Y33597D01*
X179446Y34076D01*
X179714Y34576D01*
X180251D01*
X180542Y34142D01*
X180976Y33851D01*
Y30400D01*
X181070Y29932D01*
X181335Y29535D01*
X182535Y28335D01*
X182716Y28214D01*
X182665Y27652D01*
X182005Y27378D01*
X181106Y26689D01*
X180417Y25791D01*
X179984Y24745D01*
X179836Y23622D01*
X179984Y22500D01*
X180417Y21453D01*
X181106Y20555D01*
X182005Y19866D01*
X183051Y19433D01*
X184173Y19285D01*
X185296Y19433D01*
X186342Y19866D01*
X187240Y20555D01*
X187929Y21453D01*
X188363Y22500D01*
X188510Y23622D01*
X188363Y24745D01*
X187929Y25791D01*
X187240Y26689D01*
X186342Y27378D01*
X186104Y27477D01*
X186204Y27977D01*
X202143D01*
X202242Y27477D01*
X202005Y27378D01*
X201106Y26689D01*
X200417Y25791D01*
X199984Y24745D01*
X199836Y23622D01*
X199984Y22500D01*
X200417Y21453D01*
X201106Y20555D01*
X202005Y19866D01*
X203051Y19433D01*
X204173Y19285D01*
X205296Y19433D01*
X206342Y19866D01*
X207240Y20555D01*
X207929Y21453D01*
X208363Y22500D01*
X208510Y23622D01*
X208363Y24745D01*
X207929Y25791D01*
X207240Y26689D01*
X206342Y27378D01*
X206104Y27477D01*
X206204Y27977D01*
X212143D01*
X212242Y27477D01*
X212005Y27378D01*
X211106Y26689D01*
X210417Y25791D01*
X209984Y24745D01*
X209836Y23622D01*
X209984Y22500D01*
X210417Y21453D01*
X211106Y20555D01*
X212005Y19866D01*
X213051Y19433D01*
X214173Y19285D01*
X215296Y19433D01*
X216342Y19866D01*
X217240Y20555D01*
X217929Y21453D01*
X218363Y22500D01*
X218510Y23622D01*
X218363Y24745D01*
X217929Y25791D01*
X217240Y26689D01*
X216342Y27378D01*
X216104Y27477D01*
X216204Y27977D01*
X222143D01*
X222242Y27477D01*
X222005Y27378D01*
X221106Y26689D01*
X220417Y25791D01*
X219984Y24745D01*
X219836Y23622D01*
X219984Y22500D01*
X220417Y21453D01*
X221106Y20555D01*
X222005Y19866D01*
X223051Y19433D01*
X224173Y19285D01*
X225296Y19433D01*
X226342Y19866D01*
X227240Y20555D01*
X227929Y21453D01*
X228363Y22500D01*
X228510Y23622D01*
X228363Y24745D01*
X227929Y25791D01*
X227240Y26689D01*
X226342Y27378D01*
X226022Y27511D01*
X226073Y28031D01*
X226268Y28070D01*
X226665Y28335D01*
X233487Y35157D01*
X234000Y35055D01*
X234897Y35233D01*
X235658Y35742D01*
X236167Y36503D01*
X236345Y37400D01*
X236167Y38297D01*
X235658Y39058D01*
X234897Y39567D01*
X234000Y39745D01*
X233103Y39567D01*
X232342Y39058D01*
X231833Y38297D01*
X231655Y37400D01*
X231757Y36887D01*
X225293Y30424D01*
X183907D01*
X183423Y30907D01*
Y33851D01*
X183858Y34142D01*
X184367Y34903D01*
X184545Y35800D01*
X184367Y36697D01*
X183858Y37458D01*
X183097Y37967D01*
X182200Y38145D01*
X181303Y37967D01*
X180542Y37458D01*
X180251Y37023D01*
X152818D01*
X152622Y36984D01*
X152375Y37445D01*
X159865Y44935D01*
X160130Y45332D01*
X160223Y45800D01*
Y49037D01*
X160723Y49447D01*
X160763Y49439D01*
X162490D01*
X162958Y49532D01*
X163355Y49798D01*
X163680Y50123D01*
X163945Y50520D01*
X164039Y50988D01*
X163945Y51456D01*
X163680Y51853D01*
X163283Y52119D01*
X162815Y52212D01*
X159688D01*
X159220Y52119D01*
X158823Y51853D01*
X158135Y51165D01*
X157870Y50768D01*
X157776Y50300D01*
Y46307D01*
X148483Y37013D01*
X148300Y37049D01*
Y34600D01*
X147800D01*
Y34100D01*
X145351D01*
X145445Y33625D01*
X145847Y33024D01*
X145579Y32524D01*
X124607D01*
X109023Y48107D01*
Y56999D01*
X122634Y70609D01*
X122899Y71006D01*
X122992Y71474D01*
Y77162D01*
X125123Y79292D01*
X125583Y79046D01*
X125455Y78400D01*
X125633Y77503D01*
X126142Y76742D01*
X126903Y76234D01*
X127800Y76055D01*
X128697Y76234D01*
X129458Y76742D01*
X129749Y77176D01*
X153775D01*
X154516Y76435D01*
X154913Y76170D01*
X155382Y76077D01*
X157618D01*
X158087Y76170D01*
X158484Y76435D01*
X161025Y78977D01*
X165551D01*
X165842Y78542D01*
X166603Y78034D01*
X167500Y77855D01*
X168397Y78034D01*
X169158Y78542D01*
X169667Y79303D01*
X169845Y80200D01*
X169667Y81097D01*
X169158Y81858D01*
X168397Y82367D01*
X167500Y82545D01*
X166603Y82367D01*
X165842Y81858D01*
X165551Y81423D01*
X160518D01*
X160429Y81406D01*
X160167Y81730D01*
X160128Y81856D01*
X160216Y81988D01*
X160340Y82607D01*
Y82694D01*
X164724D01*
X165343Y82817D01*
X165868Y83168D01*
X165982Y83281D01*
X170015D01*
X170042Y83242D01*
X170803Y82734D01*
X171700Y82555D01*
X172597Y82734D01*
X173358Y83242D01*
X173867Y84003D01*
X174045Y84900D01*
X173867Y85797D01*
X173358Y86558D01*
X172597Y87067D01*
X171700Y87245D01*
X170803Y87067D01*
X170042Y86558D01*
X170015Y86519D01*
X167856D01*
X167649Y87019D01*
X171887Y91257D01*
X172400Y91155D01*
X173297Y91334D01*
X174058Y91842D01*
X174567Y92603D01*
X174745Y93500D01*
X174567Y94397D01*
X174058Y95158D01*
X173297Y95666D01*
X172400Y95845D01*
X171503Y95666D01*
X170742Y95158D01*
X170233Y94397D01*
X170055Y93500D01*
X170157Y92987D01*
X165793Y88623D01*
X161949D01*
X161658Y89058D01*
X160897Y89566D01*
X160000Y89745D01*
X159103Y89566D01*
X158342Y89058D01*
X157833Y88297D01*
X157803Y88143D01*
X157324Y87998D01*
X154688Y90635D01*
X154683Y90661D01*
X154332Y91186D01*
X143215Y102303D01*
Y115097D01*
X145015Y116897D01*
X145476Y116705D01*
Y108889D01*
X144898Y108502D01*
X144345Y107676D01*
X144251Y107200D01*
X149150D01*
X149055Y107676D01*
X148502Y108502D01*
X147924Y108889D01*
Y117554D01*
X151840Y121470D01*
X152105Y121867D01*
X152198Y122335D01*
Y129428D01*
X160646Y137876D01*
X163700D01*
Y140400D01*
X164200D01*
Y140900D01*
X166649D01*
X166555Y141376D01*
X166520Y141428D01*
X166756Y141869D01*
X169016D01*
X169297Y141639D01*
Y140973D01*
X169257Y140946D01*
X168852Y140341D01*
X166056Y137545D01*
X165705Y137019D01*
X165582Y136400D01*
Y134285D01*
X165542Y134258D01*
X165033Y133497D01*
X164855Y132600D01*
X165033Y131703D01*
X165542Y130942D01*
X166303Y130433D01*
X167200Y130255D01*
X168097Y130433D01*
X168858Y130942D01*
X169367Y131703D01*
X169545Y132600D01*
X169367Y133497D01*
X168858Y134258D01*
X168818Y134285D01*
Y135730D01*
X170178Y137090D01*
X170915Y136943D01*
X171812Y137122D01*
X172573Y137630D01*
X173082Y138391D01*
X173260Y139288D01*
X173082Y140186D01*
X172573Y140946D01*
X172534Y140973D01*
Y141753D01*
X173033Y141803D01*
X173542Y141042D01*
X174303Y140533D01*
X175200Y140355D01*
X176097Y140533D01*
X176858Y141042D01*
X177367Y141803D01*
X177545Y142700D01*
X177536Y142747D01*
X179702Y144913D01*
X179759Y144968D01*
X180387Y145011D01*
X180803Y144733D01*
D02*
G37*
G36*
X132658Y141121D02*
X132555Y140602D01*
X132733Y139705D01*
X132910Y139441D01*
X126735Y133265D01*
X126470Y132868D01*
X126376Y132400D01*
Y107584D01*
X126470Y107116D01*
X126735Y106719D01*
X132233Y101221D01*
X132170Y100577D01*
X132142Y100558D01*
X131633Y99797D01*
X131455Y98900D01*
X131633Y98003D01*
X132142Y97242D01*
X132278Y97151D01*
X132316Y96609D01*
X120254Y84547D01*
X119792Y84738D01*
Y107611D01*
X120233Y107847D01*
X120403Y107733D01*
X121300Y107555D01*
X122197Y107733D01*
X122958Y108242D01*
X123467Y109003D01*
X123645Y109900D01*
X123467Y110797D01*
X122958Y111558D01*
X122523Y111849D01*
Y131693D01*
X132197Y141367D01*
X132658Y141121D01*
D02*
G37*
G36*
X138425Y116787D02*
X138386Y116591D01*
Y102852D01*
X137886Y102645D01*
X136223Y104307D01*
Y115293D01*
X137964Y117034D01*
X138425Y116787D01*
D02*
G37*
G36*
X244976Y111900D02*
Y111081D01*
X244976Y111081D01*
Y104488D01*
X241312Y100823D01*
X215517D01*
X215310Y101323D01*
X235165Y121179D01*
X235650Y121226D01*
X244976Y111900D01*
D02*
G37*
G36*
X146761Y91927D02*
X146596Y91385D01*
X146003Y91267D01*
X145242Y90758D01*
X144733Y89997D01*
X144555Y89100D01*
X144733Y88203D01*
X145242Y87442D01*
X145266Y87196D01*
X141710Y83641D01*
X138559D01*
X138407Y84141D01*
X138558Y84242D01*
X139067Y85003D01*
X139245Y85900D01*
X139067Y86797D01*
X138558Y87558D01*
X138124Y87849D01*
Y92200D01*
X138075Y92444D01*
X138536Y92690D01*
X140138Y91088D01*
X140089Y90590D01*
X140042Y90558D01*
X139533Y89797D01*
X139355Y88900D01*
X139533Y88003D01*
X140042Y87242D01*
X140803Y86734D01*
X141700Y86555D01*
X142597Y86734D01*
X143358Y87242D01*
X143867Y88003D01*
X144045Y88900D01*
X143867Y89797D01*
X143358Y90558D01*
X142923Y90849D01*
Y91256D01*
X142830Y91724D01*
X142565Y92121D01*
X138402Y96285D01*
Y99579D01*
X138902Y99787D01*
X146761Y91927D01*
D02*
G37*
G36*
X149977Y88568D02*
Y87149D01*
X149542Y86858D01*
X149033Y86097D01*
X148855Y85200D01*
X149033Y84303D01*
X149542Y83542D01*
X150303Y83034D01*
X151200Y82855D01*
X152097Y83034D01*
X152858Y83542D01*
X153367Y84303D01*
X153545Y85200D01*
X153367Y86097D01*
X152858Y86858D01*
X152424Y87149D01*
Y87668D01*
X152885Y87859D01*
X157103Y83642D01*
Y83277D01*
X156089Y82263D01*
X155603Y82166D01*
X154842Y81658D01*
X154333Y80897D01*
X154155Y80000D01*
X153846Y79624D01*
X129749D01*
X129458Y80058D01*
X128697Y80567D01*
X128058Y80694D01*
X128107Y81194D01*
X142217D01*
X142686Y81287D01*
X143082Y81552D01*
X147765Y86235D01*
X148030Y86632D01*
X148124Y87100D01*
Y87151D01*
X148558Y87442D01*
X149067Y88203D01*
X149160Y88675D01*
X149648Y88837D01*
X149977Y88568D01*
D02*
G37*
G36*
X135677Y91693D02*
Y87849D01*
X135242Y87558D01*
X134733Y86797D01*
X134555Y85900D01*
X134733Y85003D01*
X135242Y84242D01*
X135393Y84141D01*
X135241Y83641D01*
X126517D01*
X126049Y83548D01*
X125652Y83283D01*
X121854Y79484D01*
X121392Y79676D01*
Y82225D01*
X133269Y94101D01*
X135677Y91693D01*
D02*
G37*
G36*
X175753Y34076D02*
X175433Y33597D01*
X175255Y32700D01*
X175357Y32187D01*
X174093Y30924D01*
X150326D01*
X150134Y31385D01*
X153325Y34576D01*
X175486D01*
X175753Y34076D01*
D02*
G37*
%LPC*%
G36*
X141573Y150145D02*
X140676Y149967D01*
X139915Y149458D01*
X139407Y148697D01*
X139228Y147800D01*
X139407Y146903D01*
X139915Y146142D01*
X140676Y145633D01*
X141573Y145455D01*
X142471Y145633D01*
X143231Y146142D01*
X143522Y146576D01*
X148772D01*
X148948Y145691D01*
X149457Y144930D01*
X150217Y144422D01*
X151115Y144243D01*
X152012Y144422D01*
X152773Y144930D01*
X153281Y145691D01*
X153460Y146588D01*
X153281Y147486D01*
X152773Y148246D01*
X152012Y148755D01*
X151754Y148806D01*
X151568Y148930D01*
X151100Y149023D01*
X143522D01*
X143231Y149458D01*
X142471Y149967D01*
X141573Y150145D01*
D02*
G37*
G36*
X166649Y139900D02*
X164700D01*
Y137936D01*
X164868Y137970D01*
X164899Y137990D01*
X165175Y138045D01*
X166002Y138598D01*
X166555Y139425D01*
X166649Y139900D01*
D02*
G37*
G36*
X213600Y132150D02*
X213124Y132055D01*
X212298Y131502D01*
X211745Y130675D01*
X211650Y130200D01*
X213600D01*
Y132150D01*
D02*
G37*
G36*
X216549Y129200D02*
X214600D01*
Y127251D01*
X215075Y127345D01*
X215902Y127898D01*
X216455Y128725D01*
X216549Y129200D01*
D02*
G37*
G36*
X213600D02*
X211650D01*
X211745Y128725D01*
X212298Y127898D01*
X213124Y127345D01*
X213600Y127251D01*
Y129200D01*
D02*
G37*
G36*
X149150Y106200D02*
X147200D01*
Y104251D01*
X147676Y104345D01*
X148502Y104898D01*
X149055Y105725D01*
X149150Y106200D01*
D02*
G37*
G36*
X146200D02*
X144251D01*
X144345Y105725D01*
X144898Y104898D01*
X145724Y104345D01*
X146200Y104251D01*
Y106200D01*
D02*
G37*
G36*
X255100Y88945D02*
X254203Y88766D01*
X253442Y88258D01*
X252933Y87497D01*
X252755Y86600D01*
X252764Y86553D01*
X246955Y80744D01*
X246605Y80219D01*
X246481Y79600D01*
Y77885D01*
X246442Y77858D01*
X245933Y77097D01*
X245755Y76200D01*
X245933Y75303D01*
X246442Y74542D01*
X247203Y74033D01*
X248100Y73855D01*
X248997Y74033D01*
X249758Y74542D01*
X250267Y75303D01*
X250445Y76200D01*
X250267Y77097D01*
X249758Y77858D01*
X249718Y77885D01*
Y78930D01*
X255053Y84264D01*
X255100Y84255D01*
X255997Y84434D01*
X256758Y84942D01*
X257267Y85703D01*
X257445Y86600D01*
X257267Y87497D01*
X256758Y88258D01*
X255997Y88766D01*
X255100Y88945D01*
D02*
G37*
G36*
X180900Y87245D02*
X180003Y87067D01*
X179242Y86558D01*
X178733Y85797D01*
X178555Y84900D01*
X178733Y84003D01*
X179242Y83242D01*
X180003Y82734D01*
X180124Y82709D01*
X180281Y82605D01*
X180900Y82481D01*
X181519Y82605D01*
X181676Y82709D01*
X181797Y82734D01*
X182558Y83242D01*
X183067Y84003D01*
X183245Y84900D01*
X183067Y85797D01*
X182558Y86558D01*
X181797Y87067D01*
X180900Y87245D01*
D02*
G37*
G36*
X249300Y101045D02*
X248403Y100866D01*
X247642Y100358D01*
X247133Y99597D01*
X246955Y98700D01*
X247133Y97803D01*
X247642Y97042D01*
X247681Y97015D01*
Y87470D01*
X239556Y79344D01*
X239205Y78819D01*
X239082Y78200D01*
Y77085D01*
X239042Y77058D01*
X238533Y76297D01*
X238355Y75400D01*
X238533Y74503D01*
X239042Y73742D01*
X239803Y73233D01*
X240700Y73055D01*
X241597Y73233D01*
X242358Y73742D01*
X242867Y74503D01*
X243045Y75400D01*
X242867Y76297D01*
X242358Y77058D01*
X242340Y77551D01*
X250445Y85656D01*
X250795Y86181D01*
X250919Y86800D01*
Y94139D01*
X251380Y94331D01*
X260700Y85011D01*
X261225Y84660D01*
X261845Y84537D01*
X268457D01*
X268608Y84037D01*
X268042Y83658D01*
X267533Y82897D01*
X267355Y82000D01*
X267533Y81103D01*
X268042Y80342D01*
X268803Y79834D01*
X269700Y79655D01*
X270597Y79834D01*
X271358Y80342D01*
X271385Y80382D01*
X272196D01*
X280159Y72418D01*
X279952Y71918D01*
X220652D01*
X207351Y85219D01*
X206826Y85570D01*
X206207Y85693D01*
X195609D01*
X194989Y85570D01*
X194464Y85219D01*
X185355Y76111D01*
X185005Y75586D01*
X184881Y74966D01*
Y72285D01*
X184842Y72258D01*
X184333Y71497D01*
X184155Y70600D01*
X184333Y69703D01*
X184842Y68942D01*
X185603Y68433D01*
X186500Y68255D01*
X187397Y68433D01*
X188158Y68942D01*
X188667Y69703D01*
X188845Y70600D01*
X188667Y71497D01*
X188158Y72258D01*
X188119Y72285D01*
Y73124D01*
X188619Y73276D01*
X188842Y72942D01*
X189603Y72434D01*
X190500Y72255D01*
X191397Y72434D01*
X192158Y72942D01*
X192667Y73703D01*
X192845Y74600D01*
X192836Y74647D01*
X193308Y75119D01*
X193769Y74873D01*
X193655Y74300D01*
X193833Y73403D01*
X194342Y72642D01*
X195103Y72133D01*
X196000Y71955D01*
X196897Y72133D01*
X197658Y72642D01*
X197949Y73076D01*
X208983D01*
X217424Y64635D01*
X217821Y64370D01*
X218289Y64276D01*
X239593D01*
X242177Y61693D01*
Y39049D01*
X241742Y38758D01*
X241233Y37997D01*
X241055Y37100D01*
X241233Y36203D01*
X241742Y35442D01*
X242503Y34933D01*
X243400Y34755D01*
X244297Y34933D01*
X245058Y35442D01*
X245567Y36203D01*
X245745Y37100D01*
X245567Y37997D01*
X245058Y38758D01*
X244623Y39049D01*
Y62200D01*
X244530Y62668D01*
X244265Y63065D01*
X241486Y65845D01*
X241677Y66307D01*
X272704D01*
X282230Y56781D01*
X282755Y56430D01*
X283375Y56307D01*
X287125D01*
X287745Y56430D01*
X288270Y56781D01*
X290345Y58856D01*
X290695Y59381D01*
X290819Y60000D01*
Y69025D01*
X290695Y69644D01*
X290345Y70169D01*
X273214Y87300D01*
X272689Y87651D01*
X272070Y87774D01*
X262515D01*
X251636Y98653D01*
X251645Y98700D01*
X251467Y99597D01*
X250958Y100358D01*
X250197Y100866D01*
X249300Y101045D01*
D02*
G37*
G36*
X147300Y37049D02*
X146825Y36955D01*
X145998Y36402D01*
X145445Y35576D01*
X145351Y35100D01*
X147300D01*
Y37049D01*
D02*
G37*
G36*
X254173Y27959D02*
X253051Y27811D01*
X252005Y27378D01*
X251106Y26689D01*
X250417Y25791D01*
X249984Y24745D01*
X249836Y23622D01*
X249984Y22500D01*
X250417Y21453D01*
X251106Y20555D01*
X252005Y19866D01*
X253051Y19433D01*
X254173Y19285D01*
X255296Y19433D01*
X256342Y19866D01*
X257240Y20555D01*
X257929Y21453D01*
X258363Y22500D01*
X258510Y23622D01*
X258363Y24745D01*
X257929Y25791D01*
X257240Y26689D01*
X256342Y27378D01*
X255296Y27811D01*
X254173Y27959D01*
D02*
G37*
G36*
X244173D02*
X243051Y27811D01*
X242005Y27378D01*
X241106Y26689D01*
X240417Y25791D01*
X239984Y24745D01*
X239836Y23622D01*
X239984Y22500D01*
X240417Y21453D01*
X241106Y20555D01*
X242005Y19866D01*
X243051Y19433D01*
X244173Y19285D01*
X245296Y19433D01*
X246342Y19866D01*
X247240Y20555D01*
X247929Y21453D01*
X248363Y22500D01*
X248510Y23622D01*
X248363Y24745D01*
X247929Y25791D01*
X247240Y26689D01*
X246342Y27378D01*
X245296Y27811D01*
X244173Y27959D01*
D02*
G37*
G36*
X234173D02*
X233051Y27811D01*
X232005Y27378D01*
X231106Y26689D01*
X230417Y25791D01*
X229984Y24745D01*
X229836Y23622D01*
X229984Y22500D01*
X230417Y21453D01*
X231106Y20555D01*
X232005Y19866D01*
X233051Y19433D01*
X234173Y19285D01*
X235296Y19433D01*
X236342Y19866D01*
X237240Y20555D01*
X237929Y21453D01*
X238363Y22500D01*
X238510Y23622D01*
X238363Y24745D01*
X237929Y25791D01*
X237240Y26689D01*
X236342Y27378D01*
X235296Y27811D01*
X234173Y27959D01*
D02*
G37*
G36*
X174173D02*
X173051Y27811D01*
X172005Y27378D01*
X171106Y26689D01*
X170417Y25791D01*
X169984Y24745D01*
X169836Y23622D01*
X169984Y22500D01*
X170417Y21453D01*
X171106Y20555D01*
X172005Y19866D01*
X173051Y19433D01*
X174173Y19285D01*
X175296Y19433D01*
X176342Y19866D01*
X177240Y20555D01*
X177929Y21453D01*
X178363Y22500D01*
X178510Y23622D01*
X178363Y24745D01*
X177929Y25791D01*
X177240Y26689D01*
X176342Y27378D01*
X175296Y27811D01*
X174173Y27959D01*
D02*
G37*
G36*
X164173D02*
X163051Y27811D01*
X162005Y27378D01*
X161106Y26689D01*
X160417Y25791D01*
X159984Y24745D01*
X159836Y23622D01*
X159984Y22500D01*
X160417Y21453D01*
X161106Y20555D01*
X162005Y19866D01*
X163051Y19433D01*
X164173Y19285D01*
X165296Y19433D01*
X166342Y19866D01*
X167240Y20555D01*
X167929Y21453D01*
X168363Y22500D01*
X168510Y23622D01*
X168363Y24745D01*
X167929Y25791D01*
X167240Y26689D01*
X166342Y27378D01*
X165296Y27811D01*
X164173Y27959D01*
D02*
G37*
G36*
X154173D02*
X153051Y27811D01*
X152005Y27378D01*
X151106Y26689D01*
X150417Y25791D01*
X149984Y24745D01*
X149836Y23622D01*
X149984Y22500D01*
X150417Y21453D01*
X151106Y20555D01*
X152005Y19866D01*
X153051Y19433D01*
X154173Y19285D01*
X155296Y19433D01*
X156342Y19866D01*
X157240Y20555D01*
X157929Y21453D01*
X158363Y22500D01*
X158510Y23622D01*
X158363Y24745D01*
X157929Y25791D01*
X157240Y26689D01*
X156342Y27378D01*
X155296Y27811D01*
X154173Y27959D01*
D02*
G37*
G36*
X144173D02*
X143051Y27811D01*
X142005Y27378D01*
X141106Y26689D01*
X140417Y25791D01*
X139984Y24745D01*
X139836Y23622D01*
X139984Y22500D01*
X140417Y21453D01*
X141106Y20555D01*
X142005Y19866D01*
X143051Y19433D01*
X144173Y19285D01*
X145296Y19433D01*
X146342Y19866D01*
X147240Y20555D01*
X147929Y21453D01*
X148363Y22500D01*
X148510Y23622D01*
X148363Y24745D01*
X147929Y25791D01*
X147240Y26689D01*
X146342Y27378D01*
X145296Y27811D01*
X144173Y27959D01*
D02*
G37*
G36*
X134173D02*
X133051Y27811D01*
X132005Y27378D01*
X131106Y26689D01*
X130417Y25791D01*
X129984Y24745D01*
X129836Y23622D01*
X129984Y22500D01*
X130417Y21453D01*
X131106Y20555D01*
X132005Y19866D01*
X133051Y19433D01*
X134173Y19285D01*
X135296Y19433D01*
X136342Y19866D01*
X137240Y20555D01*
X137929Y21453D01*
X138363Y22500D01*
X138510Y23622D01*
X138363Y24745D01*
X137929Y25791D01*
X137240Y26689D01*
X136342Y27378D01*
X135296Y27811D01*
X134173Y27959D01*
D02*
G37*
G36*
X124173D02*
X123051Y27811D01*
X122005Y27378D01*
X121106Y26689D01*
X120417Y25791D01*
X119984Y24745D01*
X119836Y23622D01*
X119984Y22500D01*
X120417Y21453D01*
X121106Y20555D01*
X122005Y19866D01*
X123051Y19433D01*
X124173Y19285D01*
X125296Y19433D01*
X126342Y19866D01*
X127240Y20555D01*
X127929Y21453D01*
X128363Y22500D01*
X128510Y23622D01*
X128363Y24745D01*
X127929Y25791D01*
X127240Y26689D01*
X126342Y27378D01*
X125296Y27811D01*
X124173Y27959D01*
D02*
G37*
G36*
X114173D02*
X113051Y27811D01*
X112005Y27378D01*
X111106Y26689D01*
X110417Y25791D01*
X109984Y24745D01*
X109836Y23622D01*
X109984Y22500D01*
X110417Y21453D01*
X111106Y20555D01*
X112005Y19866D01*
X113051Y19433D01*
X114173Y19285D01*
X115296Y19433D01*
X116342Y19866D01*
X117240Y20555D01*
X117929Y21453D01*
X118363Y22500D01*
X118510Y23622D01*
X118363Y24745D01*
X117929Y25791D01*
X117240Y26689D01*
X116342Y27378D01*
X115296Y27811D01*
X114173Y27959D01*
D02*
G37*
G36*
X174673Y18095D02*
Y14122D01*
X178646D01*
X178557Y14797D01*
X178104Y15891D01*
X177383Y16831D01*
X176443Y17553D01*
X175348Y18006D01*
X174673Y18095D01*
D02*
G37*
G36*
X173673D02*
X172998Y18006D01*
X171904Y17553D01*
X170964Y16831D01*
X170243Y15891D01*
X169789Y14797D01*
X169700Y14122D01*
X173673D01*
Y18095D01*
D02*
G37*
G36*
X164673D02*
Y14122D01*
X168646D01*
X168557Y14797D01*
X168104Y15891D01*
X167383Y16831D01*
X166443Y17553D01*
X165348Y18006D01*
X164673Y18095D01*
D02*
G37*
G36*
X163673D02*
X162998Y18006D01*
X161904Y17553D01*
X160964Y16831D01*
X160242Y15891D01*
X159789Y14797D01*
X159700Y14122D01*
X163673D01*
Y18095D01*
D02*
G37*
G36*
X254173Y17959D02*
X253051Y17811D01*
X252005Y17378D01*
X251106Y16689D01*
X250417Y15791D01*
X249984Y14745D01*
X249836Y13622D01*
X249984Y12500D01*
X250417Y11453D01*
X251106Y10555D01*
X252005Y9866D01*
X253051Y9433D01*
X254173Y9285D01*
X255296Y9433D01*
X256342Y9866D01*
X257240Y10555D01*
X257929Y11453D01*
X258363Y12500D01*
X258510Y13622D01*
X258363Y14745D01*
X257929Y15791D01*
X257240Y16689D01*
X256342Y17378D01*
X255296Y17811D01*
X254173Y17959D01*
D02*
G37*
G36*
X244173D02*
X243051Y17811D01*
X242005Y17378D01*
X241106Y16689D01*
X240417Y15791D01*
X239984Y14745D01*
X239836Y13622D01*
X239984Y12500D01*
X240417Y11453D01*
X241106Y10555D01*
X242005Y9866D01*
X243051Y9433D01*
X244173Y9285D01*
X245296Y9433D01*
X246342Y9866D01*
X247240Y10555D01*
X247929Y11453D01*
X248363Y12500D01*
X248510Y13622D01*
X248363Y14745D01*
X247929Y15791D01*
X247240Y16689D01*
X246342Y17378D01*
X245296Y17811D01*
X244173Y17959D01*
D02*
G37*
G36*
X234173D02*
X233051Y17811D01*
X232005Y17378D01*
X231106Y16689D01*
X230417Y15791D01*
X229984Y14745D01*
X229836Y13622D01*
X229984Y12500D01*
X230417Y11453D01*
X231106Y10555D01*
X232005Y9866D01*
X233051Y9433D01*
X234173Y9285D01*
X235296Y9433D01*
X236342Y9866D01*
X237240Y10555D01*
X237929Y11453D01*
X238363Y12500D01*
X238510Y13622D01*
X238363Y14745D01*
X237929Y15791D01*
X237240Y16689D01*
X236342Y17378D01*
X235296Y17811D01*
X234173Y17959D01*
D02*
G37*
G36*
X224173D02*
X223051Y17811D01*
X222005Y17378D01*
X221106Y16689D01*
X220417Y15791D01*
X219984Y14745D01*
X219836Y13622D01*
X219984Y12500D01*
X220417Y11453D01*
X221106Y10555D01*
X222005Y9866D01*
X223051Y9433D01*
X224173Y9285D01*
X225296Y9433D01*
X226342Y9866D01*
X227240Y10555D01*
X227929Y11453D01*
X228363Y12500D01*
X228510Y13622D01*
X228363Y14745D01*
X227929Y15791D01*
X227240Y16689D01*
X226342Y17378D01*
X225296Y17811D01*
X224173Y17959D01*
D02*
G37*
G36*
X214173D02*
X213051Y17811D01*
X212005Y17378D01*
X211106Y16689D01*
X210417Y15791D01*
X209984Y14745D01*
X209836Y13622D01*
X209984Y12500D01*
X210417Y11453D01*
X211106Y10555D01*
X212005Y9866D01*
X213051Y9433D01*
X214173Y9285D01*
X215296Y9433D01*
X216342Y9866D01*
X217240Y10555D01*
X217929Y11453D01*
X218363Y12500D01*
X218510Y13622D01*
X218363Y14745D01*
X217929Y15791D01*
X217240Y16689D01*
X216342Y17378D01*
X215296Y17811D01*
X214173Y17959D01*
D02*
G37*
G36*
X204173D02*
X203051Y17811D01*
X202005Y17378D01*
X201106Y16689D01*
X200417Y15791D01*
X199984Y14745D01*
X199836Y13622D01*
X199984Y12500D01*
X200417Y11453D01*
X201106Y10555D01*
X202005Y9866D01*
X203051Y9433D01*
X204173Y9285D01*
X205296Y9433D01*
X206342Y9866D01*
X207240Y10555D01*
X207929Y11453D01*
X208363Y12500D01*
X208510Y13622D01*
X208363Y14745D01*
X207929Y15791D01*
X207240Y16689D01*
X206342Y17378D01*
X205296Y17811D01*
X204173Y17959D01*
D02*
G37*
G36*
X184173D02*
X183051Y17811D01*
X182005Y17378D01*
X181106Y16689D01*
X180417Y15791D01*
X179984Y14745D01*
X179836Y13622D01*
X179984Y12500D01*
X180417Y11453D01*
X181106Y10555D01*
X182005Y9866D01*
X183051Y9433D01*
X184173Y9285D01*
X185296Y9433D01*
X186342Y9866D01*
X187240Y10555D01*
X187929Y11453D01*
X188363Y12500D01*
X188510Y13622D01*
X188363Y14745D01*
X187929Y15791D01*
X187240Y16689D01*
X186342Y17378D01*
X185296Y17811D01*
X184173Y17959D01*
D02*
G37*
G36*
X154173D02*
X153051Y17811D01*
X152005Y17378D01*
X151106Y16689D01*
X150417Y15791D01*
X149984Y14745D01*
X149836Y13622D01*
X149984Y12500D01*
X150417Y11453D01*
X151106Y10555D01*
X152005Y9866D01*
X153051Y9433D01*
X154173Y9285D01*
X155296Y9433D01*
X156342Y9866D01*
X157240Y10555D01*
X157929Y11453D01*
X158363Y12500D01*
X158510Y13622D01*
X158363Y14745D01*
X157929Y15791D01*
X157240Y16689D01*
X156342Y17378D01*
X155296Y17811D01*
X154173Y17959D01*
D02*
G37*
G36*
X134173D02*
X133051Y17811D01*
X132005Y17378D01*
X131106Y16689D01*
X130417Y15791D01*
X129984Y14745D01*
X129836Y13622D01*
X129984Y12500D01*
X130417Y11453D01*
X131106Y10555D01*
X132005Y9866D01*
X133051Y9433D01*
X134173Y9285D01*
X135296Y9433D01*
X136342Y9866D01*
X137240Y10555D01*
X137929Y11453D01*
X138363Y12500D01*
X138510Y13622D01*
X138363Y14745D01*
X137929Y15791D01*
X137240Y16689D01*
X136342Y17378D01*
X135296Y17811D01*
X134173Y17959D01*
D02*
G37*
G36*
X124173D02*
X123051Y17811D01*
X122005Y17378D01*
X121106Y16689D01*
X120417Y15791D01*
X119984Y14745D01*
X119836Y13622D01*
X119984Y12500D01*
X120417Y11453D01*
X121106Y10555D01*
X122005Y9866D01*
X123051Y9433D01*
X124173Y9285D01*
X125296Y9433D01*
X126342Y9866D01*
X127240Y10555D01*
X127929Y11453D01*
X128363Y12500D01*
X128510Y13622D01*
X128363Y14745D01*
X127929Y15791D01*
X127240Y16689D01*
X126342Y17378D01*
X125296Y17811D01*
X124173Y17959D01*
D02*
G37*
G36*
X114173D02*
X113051Y17811D01*
X112005Y17378D01*
X111106Y16689D01*
X110417Y15791D01*
X109984Y14745D01*
X109836Y13622D01*
X109984Y12500D01*
X110417Y11453D01*
X111106Y10555D01*
X112005Y9866D01*
X113051Y9433D01*
X114173Y9285D01*
X115296Y9433D01*
X116342Y9866D01*
X117240Y10555D01*
X117929Y11453D01*
X118363Y12500D01*
X118510Y13622D01*
X118363Y14745D01*
X117929Y15791D01*
X117240Y16689D01*
X116342Y17378D01*
X115296Y17811D01*
X114173Y17959D01*
D02*
G37*
G36*
X178646Y13122D02*
X174673D01*
Y9149D01*
X175348Y9238D01*
X176443Y9691D01*
X177383Y10413D01*
X178104Y11353D01*
X178557Y12447D01*
X178646Y13122D01*
D02*
G37*
G36*
X173673D02*
X169700D01*
X169789Y12447D01*
X170243Y11353D01*
X170964Y10413D01*
X171904Y9691D01*
X172998Y9238D01*
X173673Y9149D01*
Y13122D01*
D02*
G37*
G36*
X168646D02*
X164673D01*
Y9149D01*
X165348Y9238D01*
X166443Y9691D01*
X167383Y10413D01*
X168104Y11353D01*
X168557Y12447D01*
X168646Y13122D01*
D02*
G37*
G36*
X163673D02*
X159700D01*
X159789Y12447D01*
X160242Y11353D01*
X160964Y10413D01*
X161904Y9691D01*
X162998Y9238D01*
X163673Y9149D01*
Y13122D01*
D02*
G37*
%LPD*%
G36*
X208326Y75985D02*
X208134Y75524D01*
X197949D01*
X197658Y75958D01*
X196897Y76467D01*
X196000Y76645D01*
X195427Y76531D01*
X195181Y76992D01*
X198270Y80081D01*
X204230D01*
X208326Y75985D01*
D02*
G37*
G36*
X280164Y68047D02*
X280155Y68000D01*
X280333Y67103D01*
X280842Y66342D01*
X281603Y65833D01*
X282500Y65655D01*
X283397Y65833D01*
X283682Y66023D01*
X284181Y65756D01*
Y63285D01*
X284142Y63258D01*
X283633Y62497D01*
X283455Y61600D01*
X283633Y60703D01*
X283714Y60582D01*
X283326Y60263D01*
X275369Y68220D01*
X275561Y68682D01*
X279530D01*
X280164Y68047D01*
D02*
G37*
D11*
X309442Y189642D02*
X321705D01*
D12*
X307829Y189671D02*
X308650Y188850D01*
X317600Y179900D01*
X308900Y189100D02*
X309442Y189642D01*
X317600Y143960D02*
Y179900D01*
Y143960D02*
X318400Y143160D01*
X43700Y83400D02*
X50400D01*
X73100Y106100D01*
X316400Y47800D02*
Y138450D01*
X318400Y140450D02*
Y143160D01*
X316400Y138450D02*
X318400Y140450D01*
X273700Y5100D02*
X316400Y47800D01*
X152695Y5100D02*
X273700D01*
X144173Y13622D02*
X152695Y5100D01*
D14*
X167200Y136400D02*
X170502Y139702D01*
X197600Y81700D02*
X204900D01*
X190500Y74600D02*
X197600Y81700D01*
X195609Y84075D02*
X206207D01*
X186500Y74966D02*
X195609Y84075D01*
X186500Y70600D02*
Y74966D01*
X336545Y30300D02*
Y35055D01*
X280200Y70300D02*
X282500Y68000D01*
X219982Y70300D02*
X280200D01*
X272070Y86155D02*
X289200Y69025D01*
Y60000D02*
Y69025D01*
X287125Y57925D02*
X289200Y60000D01*
X283375Y57925D02*
X287125D01*
X273375Y67925D02*
X283375Y57925D01*
X261845Y86155D02*
X272070D01*
X272866Y82000D02*
X285800Y69066D01*
X269700Y82000D02*
X272866D01*
X206207Y84075D02*
X219982Y70300D01*
X249300Y98700D02*
X261845Y86155D01*
X218998Y67925D02*
X273375D01*
X216823Y70100D02*
X218998Y67925D01*
X216500Y70100D02*
X216823D01*
X204900Y81700D02*
X216500Y70100D01*
X158721Y84313D02*
X164724D01*
X165311Y84900D01*
X171700D01*
X240700Y78200D02*
X249300Y86800D01*
X240700Y75400D02*
Y78200D01*
X249300Y86800D02*
Y98700D01*
X199200Y154900D02*
X206474D01*
X210228Y151147D01*
X283418Y114800D02*
X298018Y100200D01*
X250700Y114800D02*
X283418D01*
X158721Y82607D02*
Y84313D01*
X156500Y80386D02*
X158721Y82607D01*
X156500Y80000D02*
Y80386D01*
X153187Y89846D02*
Y90042D01*
X141597Y101632D02*
X153187Y90042D01*
X141597Y101632D02*
Y115768D01*
X248100Y76200D02*
Y79600D01*
X280200Y109600D02*
X293300Y96500D01*
X251200Y109600D02*
X280200D01*
X195531Y149287D02*
X208729D01*
X192014Y152804D02*
X195531Y149287D01*
X181824Y157287D02*
X193854D01*
X176532Y151996D02*
X181824Y157287D01*
X186073Y152804D02*
X192014D01*
X183256Y149987D02*
X186073Y152804D01*
X180421Y149987D02*
X183256D01*
X194366Y146200D02*
X196600D01*
X192066Y143900D02*
X194366Y146200D01*
X208729Y149287D02*
X209244Y148772D01*
X181700Y146813D02*
X189712Y138801D01*
X181700Y146813D02*
Y146900D01*
X189712Y138801D02*
X199082D01*
X205079Y144797D01*
X201260Y136426D02*
X207252Y142418D01*
X185474Y136426D02*
X201260D01*
X180600Y141300D02*
X185474Y136426D01*
X207252Y142418D02*
Y142418D01*
X205079Y144797D02*
X207597D01*
X148987Y123158D02*
Y130758D01*
Y123158D02*
X148987D01*
X141597Y115768D02*
X148987Y123158D01*
X161716Y143487D02*
X169016D01*
X148987Y130758D02*
X161716Y143487D01*
X153187Y89846D02*
X158721Y84313D01*
X224562Y135550D02*
X226513Y133599D01*
X227700Y131800D02*
Y132413D01*
X226513Y133599D02*
X227700Y132413D01*
X222187Y132846D02*
X225155Y129879D01*
Y127600D02*
Y129879D01*
X222187Y132846D02*
Y136542D01*
X225155Y127600D02*
X226800D01*
X227500Y128300D01*
X224562Y135550D02*
Y137525D01*
X216642Y142087D02*
X222187Y136542D01*
X217500Y133000D02*
Y134600D01*
X217625Y144462D02*
X224562Y137525D01*
X223025Y147794D02*
X232400Y138418D01*
X213109Y148437D02*
X221502D01*
X212799Y148747D02*
X213109Y148437D01*
X210169Y142397D02*
X210479Y142087D01*
X210169Y142397D02*
X210169D01*
X207252Y142418D02*
X210169Y142397D01*
X211153Y144772D02*
X211462Y144462D01*
X211153Y144772D02*
X211153D01*
X207597Y144797D02*
X211153Y144772D01*
X209244Y148772D02*
X212799Y148747D01*
X211462Y144462D02*
X217625D01*
X210479Y142087D02*
X216642D01*
X180900Y84100D02*
Y84900D01*
X232400Y135600D02*
Y138418D01*
X221502Y148437D02*
X222140Y147800D01*
X249021Y185532D02*
X259433D01*
X269400Y195500D01*
X245701Y182213D02*
X249021Y185532D01*
X209787Y182213D02*
X245701D01*
X236400Y138000D02*
Y139500D01*
X224858Y151042D02*
X236400Y139500D01*
X196018Y159452D02*
Y176378D01*
X193854Y157287D02*
X196018Y159452D01*
X176532Y149732D02*
Y151996D01*
X170915Y144115D02*
X176532Y149732D01*
X169644Y144115D02*
X170915D01*
X169016Y143487D02*
X169644Y144115D01*
X170915Y139288D02*
Y144115D01*
X214150Y129650D02*
X217500Y133000D01*
X178613Y146113D02*
Y148179D01*
X175200Y142700D02*
X178613Y146113D01*
Y148179D02*
X180421Y149987D01*
X209400Y182600D02*
X209787Y182213D01*
X167200Y132600D02*
Y136400D01*
X88700Y96400D02*
X111600Y73500D01*
X114400D01*
X319900Y105900D02*
X319950Y105950D01*
X338950D01*
X339000Y106000D01*
X210228Y151147D02*
X224858Y151042D01*
X222140Y147800D02*
X223025Y147794D01*
X333943Y115842D02*
X339000D01*
X328700Y110600D02*
X333943Y115842D01*
X319500Y110600D02*
X328700D01*
X326715Y93900D02*
X334300Y86315D01*
X320100Y93900D02*
X326715D01*
X328743Y96157D02*
X339000D01*
X325200Y99700D02*
X328743Y96157D01*
X319900Y99700D02*
X325200D01*
X321500Y43400D02*
X328200D01*
X336545Y35055D01*
X321500Y49200D02*
X331643D01*
X340700Y40143D01*
X321700Y54800D02*
X331100D01*
X335915Y49985D01*
X340328Y60200D02*
X340700Y59828D01*
X321600Y60200D02*
X340328D01*
X336545Y30300D02*
X340700D01*
X335915Y49985D02*
X340700D01*
X248100Y79600D02*
X255100Y86600D01*
X285800Y61600D02*
Y69066D01*
X324500Y160000D02*
X325500Y161000D01*
X321300Y160000D02*
X324500D01*
X322193Y151157D02*
X339500D01*
X322050Y151300D02*
X322193Y151157D01*
X325500Y161000D02*
X339500D01*
X309800Y135200D02*
Y139100D01*
X320900Y144800D02*
X324385Y141315D01*
X339500D01*
X302100Y187600D02*
Y195000D01*
Y187600D02*
X315100Y174600D01*
Y168500D02*
Y174600D01*
X323700Y170800D02*
X339458D01*
X321800Y172700D02*
X323700Y170800D01*
X298018Y100200D02*
X312500D01*
X334300Y86315D02*
X339000D01*
X202241Y182600D02*
X209100D01*
X209400Y182300D01*
Y172900D02*
Y182300D01*
X299900Y165200D02*
X311800D01*
X293400D02*
X299900D01*
X304850Y160250D01*
X311800Y165200D02*
X315100Y168500D01*
X304850Y144050D02*
Y160250D01*
Y144050D02*
X309800Y139100D01*
X196018Y176378D02*
X202241Y182600D01*
D68*
X180433Y53744D02*
D03*
X181533Y111844D02*
D03*
D76*
X272644Y152949D02*
D03*
D87*
X321705Y207358D02*
D03*
D93*
X212000Y94100D02*
X212618D01*
X212000D02*
X215900Y98000D01*
X221700Y75850D02*
Y77000D01*
X212618Y94100D02*
X230218Y76500D01*
X215900Y98000D02*
X242482D01*
X149378Y192417D02*
Y193622D01*
X127600Y132400D02*
X135500Y140300D01*
X25114Y22295D02*
X25409Y22000D01*
X209489Y74300D02*
X218289Y65500D01*
X196000Y74300D02*
X209489D01*
X147800Y34600D02*
X159000Y45800D01*
Y50300D01*
X159688Y50988D01*
X152818Y35800D02*
X182200D01*
X159688Y50988D02*
X162815D01*
X201682Y166300D02*
X207700D01*
X214600Y159400D01*
X124100Y31300D02*
X148318D01*
X152818Y35800D01*
X107800Y47600D02*
X124100Y31300D01*
X105400Y47500D02*
X123200Y29700D01*
X105400Y47500D02*
Y57369D01*
X123200Y29700D02*
X174600D01*
X133800Y95300D02*
Y98900D01*
X107800Y47600D02*
Y57506D01*
X160763Y50663D02*
X162490D01*
X162815Y50988D01*
X244200Y139163D02*
X244269Y139231D01*
X241395Y139163D02*
X244200D01*
X162700Y155918D02*
X165700Y152918D01*
X164300Y158882D02*
X171286Y151895D01*
X240100Y65500D02*
X243400Y62200D01*
X218289Y65500D02*
X240100D01*
X205900Y92800D02*
X221700Y77000D01*
X208600Y93682D02*
X226582Y75700D01*
X227200D01*
X208600Y93682D02*
Y97400D01*
X230218Y76500D02*
X234300D01*
X166300Y87400D02*
X172400Y93500D01*
X160000Y87400D02*
X166300D01*
X139609Y116591D02*
X147000Y123982D01*
Y131582D01*
X160518Y80200D02*
X167500D01*
X157618Y77300D02*
X160518Y80200D01*
X198500Y163118D02*
X201682Y166300D01*
X198500Y159123D02*
Y163118D01*
X204956Y163600D02*
X211956Y156600D01*
X202800Y163600D02*
X204956D01*
X216744Y169000D02*
X242144Y143600D01*
X200600Y169000D02*
X216744D01*
X203100Y158400D02*
X207893D01*
X212093Y154200D01*
X213856Y101600D02*
X234300Y122044D01*
X205900Y101600D02*
X213856D01*
X205900Y92800D02*
Y101600D01*
X215237Y99600D02*
X241819D01*
X213037Y97400D02*
X215237Y99600D01*
X242482Y98000D02*
X248000Y103518D01*
X241819Y99600D02*
X246200Y103981D01*
X154282Y78400D02*
X155382Y77300D01*
X127800Y78400D02*
X154282D01*
X155382Y77300D02*
X157618D01*
X151200Y85200D02*
Y89218D01*
X126517Y82417D02*
X142217D01*
X146900Y87100D01*
Y89100D01*
X121769Y77669D02*
X126517Y82417D01*
X139609Y100809D02*
X151200Y89218D01*
X243400Y37100D02*
Y62200D01*
X234300Y122044D02*
Y129263D01*
X208600Y97400D02*
X213037D01*
X248000Y103518D02*
Y113400D01*
X237600Y123800D02*
X248000Y113400D01*
X246200Y111081D02*
X246200Y111081D01*
Y112407D01*
X235900Y122707D02*
X246200Y112407D01*
X246018Y131500D02*
X248500Y133982D01*
X243007Y131500D02*
X246018D01*
X237600Y126093D02*
X243007Y131500D01*
X237600Y123800D02*
Y126093D01*
X244900Y134200D02*
X246500Y135800D01*
X243444Y134200D02*
X244900D01*
X235569Y130531D02*
X244200Y139163D01*
X235900Y126656D02*
X243444Y134200D01*
X235900Y122707D02*
Y126656D01*
X246500Y135800D02*
Y137782D01*
X246900Y138182D01*
X234300Y129263D02*
X235569Y130531D01*
X244200Y139163D02*
Y139300D01*
X194677Y155300D02*
X198500Y159123D01*
X184546Y155300D02*
X194677D01*
X191654Y143488D02*
X192066Y143900D01*
X188954Y142370D02*
Y149717D01*
X182802Y153900D02*
X183146D01*
X188954Y142370D02*
X190535Y140788D01*
X198259D01*
X204255Y146785D01*
X208421D01*
X146700Y118060D02*
X150975Y122335D01*
X146700Y106700D02*
Y118060D01*
X139609Y100809D02*
Y116591D01*
X135000Y115800D02*
X144300Y125100D01*
X135000Y104600D02*
Y115800D01*
X160140Y139100D02*
X164400D01*
X150975Y129935D02*
X160140Y139100D01*
X150975Y122335D02*
Y129935D01*
X147000Y131582D02*
X160893Y145475D01*
X168193D01*
X144300Y125100D02*
Y126300D01*
X174600Y29700D02*
X177600Y32700D01*
X183400Y29200D02*
X225800D01*
X182200Y30400D02*
X183400Y29200D01*
X182200Y30400D02*
Y35800D01*
X225800Y29200D02*
X234000Y37400D01*
X103800Y12200D02*
Y58031D01*
X105400Y57369D02*
X120169Y72137D01*
X103800Y58031D02*
X118569Y72800D01*
X103800Y12200D02*
X110100Y5900D01*
X107800Y57506D02*
X121769Y71474D01*
Y77669D01*
X120169Y82731D02*
X133637Y96200D01*
X120169Y72137D02*
Y82731D01*
X220200Y130400D02*
X220300Y130300D01*
X220200Y130400D02*
Y135718D01*
X211400Y138900D02*
X217018D01*
X220200Y135718D01*
X218550Y146450D02*
X227700Y137300D01*
X212286Y146450D02*
X218550D01*
X211976Y146759D02*
X212286Y146450D01*
X211976Y146759D02*
X211976D01*
X208421Y146785D02*
X211976Y146759D01*
X250100Y181600D02*
X257400D01*
X258900Y180100D01*
X248198Y187520D02*
X255520D01*
X261700Y193700D01*
X243900Y185300D02*
X245978D01*
X248198Y187520D01*
X226358Y154200D02*
X241395Y139163D01*
X212093Y154200D02*
X226358D01*
X245318Y142000D02*
X246900Y140418D01*
Y138182D02*
Y140418D01*
X248500Y133982D02*
Y141300D01*
X247781Y141800D02*
X248000D01*
X245981Y143600D02*
X247781Y141800D01*
X240820Y142000D02*
X245318D01*
X242144Y143600D02*
X245981D01*
X248000Y141800D02*
X248500Y141300D01*
X226220Y156600D02*
X240820Y142000D01*
X173700Y150982D02*
Y153500D01*
X168193Y145475D02*
X173700Y150982D01*
X165700Y152918D02*
X166400Y152218D01*
X173700Y153500D02*
X175100Y154900D01*
Y155881D01*
X170300Y151400D02*
X170791D01*
X171286Y151895D01*
X183146Y153900D02*
X184546Y155300D01*
X160000Y152500D02*
X163900Y148600D01*
X165700Y152918D02*
Y153000D01*
X164300Y158882D02*
Y159081D01*
X144681Y178700D02*
X164300Y159081D01*
X162700Y155918D02*
Y158418D01*
X145318Y175800D02*
X162700Y158418D01*
X128000Y175800D02*
X145318D01*
X160000Y152500D02*
Y157300D01*
X124100Y178700D02*
X144681D01*
X145800Y181200D02*
X170200Y156800D01*
X175100Y155881D02*
X179919Y160700D01*
X125900Y181200D02*
X145800D01*
X140818Y169500D02*
X157700Y152618D01*
Y146100D02*
Y152618D01*
X141700Y88900D02*
X141700Y88900D01*
X141700Y88900D02*
Y91256D01*
X137178Y95778D02*
X141700Y91256D01*
X133800Y95300D02*
X136900Y92200D01*
Y85900D02*
Y92200D01*
X211956Y156600D02*
X226220D01*
X246200Y103981D02*
Y111081D01*
X313800Y140400D02*
Y143800D01*
X312300Y145300D02*
X313800Y143800D01*
X99775Y116200D02*
X108500D01*
X99375Y116600D02*
X99775Y116200D01*
X85100Y168600D02*
X86700D01*
X55118Y185039D02*
X55829Y185750D01*
X69600Y194700D02*
Y197400D01*
X60650Y185750D02*
X69600Y194700D01*
X24909Y21500D02*
X25409Y22000D01*
X246900Y152000D02*
X250150Y155250D01*
X237725Y152000D02*
X246900D01*
X234625Y155100D02*
X237725Y152000D01*
X118569Y72800D02*
Y145669D01*
X110100Y5900D02*
X136451D01*
X144173Y13622D01*
X118569Y145669D02*
X139700Y166800D01*
X179919Y160700D02*
X192900D01*
X312300Y145300D02*
Y153600D01*
X310600Y204100D02*
X313858Y207358D01*
X321705D01*
Y189642D02*
X347295D01*
X339458Y170800D02*
X339500Y170843D01*
X133600Y144500D02*
Y145300D01*
X121300Y132200D02*
X133600Y144500D01*
X246800Y145000D02*
X248000Y143800D01*
Y141800D02*
Y143800D01*
X246800Y145000D02*
Y146100D01*
X127600Y107584D02*
X133800Y101384D01*
X127600Y107584D02*
Y132400D01*
X133800Y98900D02*
Y101384D01*
X121300Y109900D02*
Y132200D01*
X135500Y140300D02*
Y140600D01*
X132100Y107500D02*
X135000Y104600D01*
X131800Y107500D02*
Y107800D01*
Y107500D02*
X132100D01*
X133637Y96200D02*
Y98737D01*
X133800Y98900D01*
X137178Y95778D02*
Y101622D01*
X135000Y103800D02*
X137178Y101622D01*
X135000Y103800D02*
Y104600D01*
X137178Y101622D02*
X137178D01*
X254700Y137900D02*
X254800Y137800D01*
X254700Y137900D02*
Y144000D01*
X254600Y144100D02*
X254700Y144000D01*
X164173Y13227D02*
X164568D01*
X164173D02*
Y13622D01*
X149378Y192417D02*
X156495Y185300D01*
X221500D01*
X148173Y193622D02*
X149378D01*
X138582Y169500D02*
X140818D01*
X151100Y147800D02*
X151300Y147600D01*
X141573Y147800D02*
X151100D01*
X128832Y159750D02*
X138582Y169500D01*
X127150Y159750D02*
X128832D01*
X121700Y185400D02*
X125900Y181200D01*
D94*
X84000Y95700D02*
X88000D01*
X25159Y36859D02*
X84000Y95700D01*
X25159Y23995D02*
Y36859D01*
X40800Y36371D02*
X57229Y52800D01*
X40800Y26100D02*
Y36371D01*
X88700Y96400D02*
X108500Y116200D01*
X88000Y95700D02*
X88700Y96400D01*
X108500Y116200D02*
Y118000D01*
X101800Y124700D02*
X108500Y118000D01*
X67200Y124700D02*
X101800D01*
X63800Y128100D02*
X67200Y124700D01*
X63800Y128100D02*
Y145700D01*
X67950Y185750D02*
X85100Y168600D01*
X60650Y185750D02*
X67950D01*
X55829D02*
X60650D01*
X75500Y145000D02*
Y157400D01*
X86700Y168600D01*
X63800Y145700D02*
X75500Y157400D01*
D96*
X180433Y53744D02*
D03*
X340700Y59828D02*
D03*
X339500Y170843D02*
D03*
X339000Y115842D02*
D03*
D97*
X43701Y166142D02*
D03*
D98*
X55118Y185039D02*
D03*
X30315D02*
D03*
D99*
X19800Y46000D02*
D03*
D100*
X340700Y49985D02*
D03*
Y40143D02*
D03*
Y30300D02*
D03*
X339500Y161000D02*
D03*
Y151157D02*
D03*
Y141315D02*
D03*
X339000Y106000D02*
D03*
Y96157D02*
D03*
Y86315D02*
D03*
X78173Y193622D02*
D03*
X88173D02*
D03*
X98173D02*
D03*
X108173D02*
D03*
X118173D02*
D03*
X128173D02*
D03*
X138173D02*
D03*
X148173D02*
D03*
X158173D02*
D03*
X168173D02*
D03*
X184173Y203622D02*
D03*
Y193622D02*
D03*
X194173Y203622D02*
D03*
Y193622D02*
D03*
X204173Y203622D02*
D03*
Y193622D02*
D03*
X214173Y203622D02*
D03*
Y193622D02*
D03*
X224173Y203622D02*
D03*
Y193622D02*
D03*
X234173Y203622D02*
D03*
Y193622D02*
D03*
X244173Y203622D02*
D03*
Y193622D02*
D03*
X254173Y203622D02*
D03*
Y193622D02*
D03*
X184173Y13622D02*
D03*
Y23622D02*
D03*
X174173Y13622D02*
D03*
Y23622D02*
D03*
X164173Y13622D02*
D03*
Y23622D02*
D03*
X154173Y13622D02*
D03*
Y23622D02*
D03*
X144173Y13622D02*
D03*
Y23622D02*
D03*
X134173Y13622D02*
D03*
Y23622D02*
D03*
X124173Y13622D02*
D03*
Y23622D02*
D03*
X114173Y13622D02*
D03*
Y23622D02*
D03*
X254173Y13622D02*
D03*
Y23622D02*
D03*
X244173Y13622D02*
D03*
Y23622D02*
D03*
X234173Y13622D02*
D03*
Y23622D02*
D03*
X224173Y13622D02*
D03*
Y23622D02*
D03*
X214173Y13622D02*
D03*
Y23622D02*
D03*
X204173D02*
D03*
X168173Y203622D02*
D03*
X158173D02*
D03*
X148173D02*
D03*
X138173D02*
D03*
X128173D02*
D03*
X118173D02*
D03*
X108173D02*
D03*
X98173D02*
D03*
X88173D02*
D03*
X78173D02*
D03*
X204173Y13622D02*
D03*
D101*
X188799Y56500D02*
D03*
Y50988D02*
D03*
X171870D02*
D03*
Y56500D02*
D03*
X177382Y50988D02*
D03*
Y56500D02*
D03*
X182500Y50988D02*
D03*
Y56500D02*
D03*
X162815Y50988D02*
D03*
Y56500D02*
D03*
X198248Y50988D02*
D03*
Y56500D02*
D03*
X189899Y114600D02*
D03*
Y109088D02*
D03*
X172970D02*
D03*
Y114600D02*
D03*
X178482Y109088D02*
D03*
Y114600D02*
D03*
X183600Y109088D02*
D03*
Y114600D02*
D03*
X163915Y109088D02*
D03*
Y114600D02*
D03*
X199348Y109088D02*
D03*
Y114600D02*
D03*
X275400Y144583D02*
D03*
X269888D02*
D03*
Y161512D02*
D03*
X275400D02*
D03*
X269888Y156000D02*
D03*
X275400D02*
D03*
X269888Y150882D02*
D03*
X275400D02*
D03*
X269888Y170567D02*
D03*
X275400D02*
D03*
X269888Y135134D02*
D03*
X275400D02*
D03*
D102*
X321705Y189642D02*
D03*
X347295D02*
D03*
Y207358D02*
D03*
X57229Y52800D02*
D03*
D103*
X24909Y21500D02*
D03*
D104*
X40500D02*
D03*
D105*
X72921Y168600D02*
D03*
D106*
X86700D02*
D03*
D107*
X212000Y94100D02*
D03*
X221700Y75850D02*
D03*
X190500Y74600D02*
D03*
X186500Y70600D02*
D03*
X196000Y74300D02*
D03*
X147800Y34600D02*
D03*
X227200Y75700D02*
D03*
X234300Y76500D02*
D03*
X240700Y75400D02*
D03*
X171700Y84900D02*
D03*
X167500Y80200D02*
D03*
X202800Y163600D02*
D03*
X200600Y169000D02*
D03*
X203100Y158400D02*
D03*
X250700Y114800D02*
D03*
X205900Y101600D02*
D03*
X156500Y80000D02*
D03*
X151200Y85200D02*
D03*
X127800Y78400D02*
D03*
X248100Y76200D02*
D03*
X208600Y97400D02*
D03*
X251200Y109600D02*
D03*
X244900Y134200D02*
D03*
X199200Y154900D02*
D03*
X191654Y143488D02*
D03*
X188954Y149717D02*
D03*
X182802Y153900D02*
D03*
X196600Y146200D02*
D03*
X146700Y106700D02*
D03*
X144300Y126300D02*
D03*
X160000Y87400D02*
D03*
X172400Y93500D02*
D03*
X234000Y37400D02*
D03*
X182200Y35800D02*
D03*
X177600Y32700D02*
D03*
X227700Y131800D02*
D03*
X220300Y130300D02*
D03*
X225155Y127600D02*
D03*
X211400Y138900D02*
D03*
X217500Y134600D02*
D03*
X214100Y129700D02*
D03*
X227700Y137300D02*
D03*
X232400Y135600D02*
D03*
X250100Y181600D02*
D03*
X261600Y119600D02*
D03*
X244200Y139300D02*
D03*
X236400Y138000D02*
D03*
X164200Y140400D02*
D03*
X181700Y146900D02*
D03*
X180600Y141300D02*
D03*
X180900Y84900D02*
D03*
X293400Y165200D02*
D03*
X243900Y185300D02*
D03*
X258900Y180100D02*
D03*
X170300Y151400D02*
D03*
X165700Y153000D02*
D03*
X160000Y157300D02*
D03*
X170200Y156800D02*
D03*
X162900Y148200D02*
D03*
X157700Y146100D02*
D03*
X175200Y142700D02*
D03*
X170915Y139288D02*
D03*
X146900Y89100D02*
D03*
X141700Y88900D02*
D03*
X136900Y85900D02*
D03*
X249300Y98700D02*
D03*
X167200Y132600D02*
D03*
X319500Y110600D02*
D03*
X320100Y93900D02*
D03*
X319900Y99700D02*
D03*
Y105900D02*
D03*
X321500Y43400D02*
D03*
Y49200D02*
D03*
X321700Y54800D02*
D03*
X321600Y60200D02*
D03*
X285800Y61600D02*
D03*
X269700Y82000D02*
D03*
X255100Y86600D02*
D03*
X282500Y68000D02*
D03*
X293300Y96500D02*
D03*
X313800Y140400D02*
D03*
X321300Y160000D02*
D03*
X322050Y151300D02*
D03*
X73100Y106100D02*
D03*
X69600Y197400D02*
D03*
X192900Y160700D02*
D03*
X309800Y135200D02*
D03*
X312300Y153600D02*
D03*
X241600Y157100D02*
D03*
X269400Y195500D02*
D03*
X302100Y195000D02*
D03*
X310600Y204100D02*
D03*
X320900Y144800D02*
D03*
X321800Y172700D02*
D03*
X312500Y100200D02*
D03*
X209400Y172900D02*
D03*
X133600Y145300D02*
D03*
X246800Y146100D02*
D03*
X124100Y178700D02*
D03*
X99375Y116600D02*
D03*
X134900Y140602D02*
D03*
X131200Y107802D02*
D03*
X133800Y98900D02*
D03*
X121300Y109900D02*
D03*
X43700Y83400D02*
D03*
X250150Y155250D02*
D03*
X234625Y155100D02*
D03*
X254800Y137800D02*
D03*
X254600Y144100D02*
D03*
X114400Y73500D02*
D03*
X221500Y185300D02*
D03*
X139700Y166800D02*
D03*
X151115Y146588D02*
D03*
X141573Y147800D02*
D03*
X214600Y159400D02*
D03*
X127150Y159750D02*
D03*
X261700Y193700D02*
D03*
X121700Y185400D02*
D03*
X128000Y175800D02*
D03*
X243400Y37100D02*
D03*
D108*
X308900Y189100D02*
D03*
X75500Y145000D02*
D03*
M02*
