G04*
G04 #@! TF.GenerationSoftware,Altium Limited,Altium Designer,19.1.7 (138)*
G04*
G04 Layer_Color=16711935*
%FSLAX25Y25*%
%MOIN*%
G70*
G01*
G75*
%ADD41R,0.06706X0.06706*%
%ADD47R,0.07800X0.07800*%
%ADD48R,0.18910X0.08674*%
%ADD49R,0.08674X0.18910*%
%ADD50R,0.06300X0.06300*%
%ADD51C,0.07800*%
%ADD52C,0.03300*%
%ADD53C,0.06706*%
%ADD54R,0.09265X0.09265*%
%ADD55C,0.09265*%
%ADD56C,0.06312*%
%ADD57R,0.06312X0.06312*%
%ADD58C,0.03800*%
%ADD59C,0.05800*%
%ADD93C,0.00800*%
%ADD94C,0.05906*%
D41*
X321705Y207358D02*
D03*
D47*
X180433Y53744D02*
D03*
X340700Y59828D02*
D03*
X339500Y170843D02*
D03*
X339000Y115842D02*
D03*
D48*
X43701Y166142D02*
D03*
D49*
X55118Y185039D02*
D03*
X30315D02*
D03*
D50*
X19800Y46000D02*
D03*
D51*
X340700Y49985D02*
D03*
Y40143D02*
D03*
Y30300D02*
D03*
X339500Y161000D02*
D03*
Y151157D02*
D03*
Y141315D02*
D03*
X339000Y106000D02*
D03*
Y96157D02*
D03*
Y86315D02*
D03*
X78173Y193622D02*
D03*
X88173D02*
D03*
X98173D02*
D03*
X108173D02*
D03*
X118173D02*
D03*
X128173D02*
D03*
X138173D02*
D03*
X148173D02*
D03*
X158173D02*
D03*
X168173D02*
D03*
X184173Y203622D02*
D03*
Y193622D02*
D03*
X194173Y203622D02*
D03*
Y193622D02*
D03*
X204173Y203622D02*
D03*
Y193622D02*
D03*
X214173Y203622D02*
D03*
Y193622D02*
D03*
X224173Y203622D02*
D03*
Y193622D02*
D03*
X234173Y203622D02*
D03*
Y193622D02*
D03*
X244173Y203622D02*
D03*
Y193622D02*
D03*
X254173Y203622D02*
D03*
Y193622D02*
D03*
X184173Y13622D02*
D03*
Y23622D02*
D03*
X174173Y13622D02*
D03*
Y23622D02*
D03*
X164173Y13622D02*
D03*
Y23622D02*
D03*
X154173Y13622D02*
D03*
Y23622D02*
D03*
X144173Y13622D02*
D03*
Y23622D02*
D03*
X134173Y13622D02*
D03*
Y23622D02*
D03*
X124173Y13622D02*
D03*
Y23622D02*
D03*
X114173Y13622D02*
D03*
Y23622D02*
D03*
X254173Y13622D02*
D03*
Y23622D02*
D03*
X244173Y13622D02*
D03*
Y23622D02*
D03*
X234173Y13622D02*
D03*
Y23622D02*
D03*
X224173Y13622D02*
D03*
Y23622D02*
D03*
X214173Y13622D02*
D03*
Y23622D02*
D03*
X204173D02*
D03*
X168173Y203622D02*
D03*
X158173D02*
D03*
X148173D02*
D03*
X138173D02*
D03*
X128173D02*
D03*
X118173D02*
D03*
X108173D02*
D03*
X98173D02*
D03*
X88173D02*
D03*
X78173D02*
D03*
X204173Y13622D02*
D03*
D52*
X188799Y56500D02*
D03*
Y50988D02*
D03*
X171870D02*
D03*
Y56500D02*
D03*
X177382Y50988D02*
D03*
Y56500D02*
D03*
X182500Y50988D02*
D03*
Y56500D02*
D03*
X162815Y50988D02*
D03*
Y56500D02*
D03*
X198248Y50988D02*
D03*
Y56500D02*
D03*
X189899Y114600D02*
D03*
Y109088D02*
D03*
X172970D02*
D03*
Y114600D02*
D03*
X178482Y109088D02*
D03*
Y114600D02*
D03*
X183600Y109088D02*
D03*
Y114600D02*
D03*
X163915Y109088D02*
D03*
Y114600D02*
D03*
X199348Y109088D02*
D03*
Y114600D02*
D03*
X275400Y144583D02*
D03*
X269888D02*
D03*
Y161512D02*
D03*
X275400D02*
D03*
X269888Y156000D02*
D03*
X275400D02*
D03*
X269888Y150882D02*
D03*
X275400D02*
D03*
X269888Y170567D02*
D03*
X275400D02*
D03*
X269888Y135134D02*
D03*
X275400D02*
D03*
D53*
X347295Y189642D02*
D03*
Y207358D02*
D03*
X57229Y52800D02*
D03*
D54*
X24909Y21500D02*
D03*
D55*
X40500D02*
D03*
D56*
X72921Y168600D02*
D03*
D57*
X86700D02*
D03*
D58*
X212000Y94100D02*
D03*
X221700Y75850D02*
D03*
X190500Y74600D02*
D03*
X186500Y70600D02*
D03*
X196000Y74300D02*
D03*
X147800Y34600D02*
D03*
X227200Y75700D02*
D03*
X234300Y76500D02*
D03*
X240700Y75400D02*
D03*
X171700Y84900D02*
D03*
X167500Y80200D02*
D03*
X202800Y163600D02*
D03*
X200600Y169000D02*
D03*
X203100Y158400D02*
D03*
X250700Y114800D02*
D03*
X205900Y101600D02*
D03*
X156500Y80000D02*
D03*
X151200Y85200D02*
D03*
X127800Y78400D02*
D03*
X248100Y76200D02*
D03*
X208600Y97400D02*
D03*
X251200Y109600D02*
D03*
X244900Y134200D02*
D03*
X199200Y154900D02*
D03*
X191654Y143488D02*
D03*
X188954Y149717D02*
D03*
X182802Y153900D02*
D03*
X196600Y146200D02*
D03*
X146700Y106700D02*
D03*
X144300Y126300D02*
D03*
X160000Y87400D02*
D03*
X172400Y93500D02*
D03*
X234000Y37400D02*
D03*
X182200Y35800D02*
D03*
X177600Y32700D02*
D03*
X227700Y131800D02*
D03*
X220300Y130300D02*
D03*
X225155Y127600D02*
D03*
X211400Y138900D02*
D03*
X217500Y134600D02*
D03*
X214100Y129700D02*
D03*
X227700Y137300D02*
D03*
X232400Y135600D02*
D03*
X250100Y181600D02*
D03*
X261600Y119600D02*
D03*
X244200Y139300D02*
D03*
X236400Y138000D02*
D03*
X164200Y140400D02*
D03*
X181700Y146900D02*
D03*
X180600Y141300D02*
D03*
X180900Y84900D02*
D03*
X293400Y165200D02*
D03*
X243900Y185300D02*
D03*
X258900Y180100D02*
D03*
X170300Y151400D02*
D03*
X165700Y153000D02*
D03*
X160000Y157300D02*
D03*
X170200Y156800D02*
D03*
X162900Y148200D02*
D03*
X157700Y146100D02*
D03*
X175200Y142700D02*
D03*
X170915Y139288D02*
D03*
X146900Y89100D02*
D03*
X141700Y88900D02*
D03*
X136900Y85900D02*
D03*
X249300Y98700D02*
D03*
X167200Y132600D02*
D03*
X319500Y110600D02*
D03*
X320100Y93900D02*
D03*
X319900Y99700D02*
D03*
Y105900D02*
D03*
X321500Y43400D02*
D03*
Y49200D02*
D03*
X321700Y54800D02*
D03*
X321600Y60200D02*
D03*
X285800Y61600D02*
D03*
X269700Y82000D02*
D03*
X255100Y86600D02*
D03*
X282500Y68000D02*
D03*
X293300Y96500D02*
D03*
X313800Y140400D02*
D03*
X321300Y160000D02*
D03*
X322050Y151300D02*
D03*
X73100Y106100D02*
D03*
X69600Y197400D02*
D03*
X192900Y160700D02*
D03*
X309800Y135200D02*
D03*
X312300Y153600D02*
D03*
X241600Y157100D02*
D03*
X269400Y195500D02*
D03*
X302100Y195000D02*
D03*
X310600Y204100D02*
D03*
X320900Y144800D02*
D03*
X321800Y172700D02*
D03*
X312500Y100200D02*
D03*
X209400Y172900D02*
D03*
X133600Y145300D02*
D03*
X246800Y146100D02*
D03*
X124100Y178700D02*
D03*
X99375Y116600D02*
D03*
X134900Y140602D02*
D03*
X131200Y107802D02*
D03*
X133800Y98900D02*
D03*
X121300Y109900D02*
D03*
X43700Y83400D02*
D03*
X250150Y155250D02*
D03*
X234625Y155100D02*
D03*
X254800Y137800D02*
D03*
X254600Y144100D02*
D03*
X114400Y73500D02*
D03*
X221500Y185300D02*
D03*
X139700Y166800D02*
D03*
X151115Y146588D02*
D03*
X141573Y147800D02*
D03*
X214600Y159400D02*
D03*
X127150Y159750D02*
D03*
X261700Y193700D02*
D03*
X121700Y185400D02*
D03*
X128000Y175800D02*
D03*
X243400Y37100D02*
D03*
D59*
X308900Y189100D02*
D03*
X75500Y145000D02*
D03*
D93*
X85100Y168600D02*
X86700D01*
X60650Y185750D02*
X69600Y194700D01*
D94*
X67200Y124700D02*
X101800D01*
X63800Y128100D02*
X67200Y124700D01*
X63800Y128100D02*
Y145700D01*
X75500Y145000D02*
Y157400D01*
X86700Y168600D01*
X63800Y145700D02*
X75500Y157400D01*
M02*
