G04*
G04 #@! TF.GenerationSoftware,Altium Limited,Altium Designer,19.1.7 (138)*
G04*
G04 Layer_Color=8388736*
%FSLAX25Y25*%
%MOIN*%
G70*
G01*
G75*
%ADD15R,0.07493X0.05131*%
%ADD16R,0.05131X0.07493*%
%ADD17R,0.04540X0.07493*%
%ADD18R,0.06706X0.06706*%
%ADD19R,0.05328X0.07887*%
%ADD20R,0.21194X0.10013*%
%ADD21O,0.01732X0.06850*%
%ADD22R,0.01732X0.06850*%
%ADD23R,0.40170X0.10013*%
%ADD24C,0.04737*%
%ADD25R,0.07099X0.05131*%
%ADD26R,0.07099X0.07099*%
%ADD27R,0.06115X0.08280*%
%ADD28R,0.10013X0.21194*%
%ADD29O,0.06850X0.01732*%
%ADD30R,0.06850X0.01732*%
%ADD31R,0.08280X0.06115*%
%ADD32R,0.07493X0.04540*%
%ADD33R,0.05131X0.07099*%
%ADD34R,0.07099X0.07099*%
%ADD35R,0.07887X0.05328*%
%ADD36R,0.06706X0.04343*%
%ADD37R,0.14580X0.10642*%
%ADD38O,0.03556X0.05918*%
%ADD39R,0.03556X0.05918*%
%ADD40R,0.07493X0.14973*%
%ADD41R,0.06706X0.06706*%
%ADD42R,0.07887X0.05918*%
%ADD43R,0.05918X0.07887*%
%ADD44R,0.13792X0.10642*%
%ADD45R,0.07099X0.12611*%
%ADD46R,0.23635X0.25210*%
%ADD47R,0.07800X0.07800*%
%ADD48R,0.18910X0.08674*%
%ADD49R,0.08674X0.18910*%
%ADD50R,0.06300X0.06300*%
%ADD51C,0.07800*%
%ADD52C,0.03300*%
%ADD53C,0.06706*%
%ADD54R,0.09265X0.09265*%
%ADD55C,0.09265*%
%ADD56C,0.06312*%
%ADD57R,0.06312X0.06312*%
%ADD58C,0.03800*%
%ADD59C,0.05800*%
D15*
X296500Y141318D02*
D03*
Y131082D02*
D03*
D16*
X195582Y133200D02*
D03*
X205818D02*
D03*
X202082Y72200D02*
D03*
X212318D02*
D03*
D17*
X81415Y39400D02*
D03*
X70785D02*
D03*
X94512Y144000D02*
D03*
X83488D02*
D03*
X153515Y154900D02*
D03*
X142885D02*
D03*
X58415Y207900D02*
D03*
X47785D02*
D03*
X169470Y179200D02*
D03*
X180100D02*
D03*
X259915Y128600D02*
D03*
X249285D02*
D03*
X318215Y165400D02*
D03*
X307585D02*
D03*
D18*
X83800Y30590D02*
D03*
Y16810D02*
D03*
D19*
X96206Y103800D02*
D03*
X84395D02*
D03*
X149200Y183600D02*
D03*
X160617D02*
D03*
X169491Y165900D02*
D03*
X180909D02*
D03*
D20*
X180433Y53744D02*
D03*
X181533Y111844D02*
D03*
D21*
X163799Y42720D02*
D03*
X166358D02*
D03*
X168917D02*
D03*
X171476D02*
D03*
X174035D02*
D03*
X176594D02*
D03*
X179154D02*
D03*
X181713D02*
D03*
X184272D02*
D03*
X186831D02*
D03*
X189390D02*
D03*
X191949D02*
D03*
X194508D02*
D03*
X197067D02*
D03*
X163799Y64768D02*
D03*
X166358D02*
D03*
X168917D02*
D03*
X171476D02*
D03*
X174035D02*
D03*
X176594D02*
D03*
X179154D02*
D03*
X181713D02*
D03*
X184272D02*
D03*
X186831D02*
D03*
X189390D02*
D03*
X191949D02*
D03*
X194508D02*
D03*
X164899Y100821D02*
D03*
X167458D02*
D03*
X170017D02*
D03*
X172576D02*
D03*
X175135D02*
D03*
X177694D02*
D03*
X180254D02*
D03*
X182813D02*
D03*
X185372D02*
D03*
X187931D02*
D03*
X190490D02*
D03*
X193049D02*
D03*
X195608D02*
D03*
X198167D02*
D03*
X164899Y122868D02*
D03*
X167458D02*
D03*
X170017D02*
D03*
X172576D02*
D03*
X175135D02*
D03*
X177694D02*
D03*
X180254D02*
D03*
X182813D02*
D03*
X185372D02*
D03*
X187931D02*
D03*
X190490D02*
D03*
X193049D02*
D03*
X195608D02*
D03*
D22*
X197067Y64768D02*
D03*
X198167Y122868D02*
D03*
D23*
X181533Y111844D02*
D03*
D24*
X303000Y177600D02*
D03*
X293900Y189400D02*
D03*
X95200Y121200D02*
D03*
X215500Y170400D02*
D03*
X215700Y180000D02*
D03*
X274500Y46400D02*
D03*
X224500Y37800D02*
D03*
X66929Y203715D02*
D03*
X104800Y22000D02*
D03*
D25*
X272891Y189428D02*
D03*
Y180372D02*
D03*
X141091Y55028D02*
D03*
Y45972D02*
D03*
D26*
X284309Y184900D02*
D03*
X152509Y50500D02*
D03*
D27*
X296202Y203900D02*
D03*
X283998D02*
D03*
X288499Y121800D02*
D03*
X275901D02*
D03*
X278101Y109300D02*
D03*
X290699D02*
D03*
X240300Y145100D02*
D03*
X227702D02*
D03*
X216900Y146600D02*
D03*
X204302D02*
D03*
X230002Y92300D02*
D03*
X242600D02*
D03*
D28*
X272644Y152949D02*
D03*
D29*
X261620Y169583D02*
D03*
Y167024D02*
D03*
Y164465D02*
D03*
Y161906D02*
D03*
Y159346D02*
D03*
Y156787D02*
D03*
Y154228D02*
D03*
Y151669D02*
D03*
Y149110D02*
D03*
Y146551D02*
D03*
Y143992D02*
D03*
Y141433D02*
D03*
Y138874D02*
D03*
Y136315D02*
D03*
X283668Y169583D02*
D03*
Y167024D02*
D03*
Y164465D02*
D03*
Y161906D02*
D03*
Y159346D02*
D03*
Y156787D02*
D03*
Y154228D02*
D03*
Y151669D02*
D03*
Y149110D02*
D03*
Y146551D02*
D03*
Y143992D02*
D03*
Y141433D02*
D03*
Y138874D02*
D03*
D30*
Y136315D02*
D03*
D31*
X154200Y109901D02*
D03*
Y122499D02*
D03*
X94600Y16498D02*
D03*
Y28702D02*
D03*
X309800Y128699D02*
D03*
Y116101D02*
D03*
X232500Y175902D02*
D03*
Y163698D02*
D03*
X135000Y119798D02*
D03*
Y132002D02*
D03*
X235200Y60400D02*
D03*
Y47802D02*
D03*
X250300Y48202D02*
D03*
Y60800D02*
D03*
X122300Y54098D02*
D03*
Y66302D02*
D03*
X35300Y75802D02*
D03*
Y63598D02*
D03*
X53700Y152302D02*
D03*
Y140098D02*
D03*
D32*
X132800Y71430D02*
D03*
Y60800D02*
D03*
X255700Y104415D02*
D03*
Y93785D02*
D03*
X264400Y60300D02*
D03*
Y49670D02*
D03*
X207900Y60000D02*
D03*
Y49370D02*
D03*
X320300Y116285D02*
D03*
Y126915D02*
D03*
X226100Y122215D02*
D03*
Y111585D02*
D03*
X54100Y127912D02*
D03*
Y116888D02*
D03*
D33*
X218428Y122909D02*
D03*
X209372D02*
D03*
D34*
X213900Y111491D02*
D03*
D35*
X9600Y138894D02*
D03*
Y150706D02*
D03*
X22900Y150505D02*
D03*
Y138695D02*
D03*
X49100Y62791D02*
D03*
Y74209D02*
D03*
X20500Y76309D02*
D03*
Y64891D02*
D03*
D36*
X160002Y168715D02*
D03*
Y174285D02*
D03*
X147798Y168715D02*
D03*
Y174295D02*
D03*
D37*
X81000Y125000D02*
D03*
D38*
X73126Y114173D02*
D03*
X78126D02*
D03*
X83126D02*
D03*
X88126D02*
D03*
X73126Y135827D02*
D03*
X78126D02*
D03*
X83126D02*
D03*
D39*
X88126D02*
D03*
D40*
X9284Y108500D02*
D03*
X44717D02*
D03*
D41*
X24710Y207700D02*
D03*
X38490D02*
D03*
X321705Y207358D02*
D03*
D42*
X244612Y164476D02*
D03*
Y175500D02*
D03*
D43*
X160524Y133500D02*
D03*
X149500D02*
D03*
X127388Y34600D02*
D03*
X138412D02*
D03*
D44*
X112500Y128314D02*
D03*
Y155086D02*
D03*
D45*
X76984Y54012D02*
D03*
X95016D02*
D03*
D46*
X86000Y82358D02*
D03*
D47*
X180433Y53744D02*
D03*
X340700Y59828D02*
D03*
X339500Y170843D02*
D03*
X339000Y115842D02*
D03*
D48*
X43701Y166142D02*
D03*
D49*
X30315Y185039D02*
D03*
D50*
X19800Y46000D02*
D03*
D51*
X340700Y49985D02*
D03*
Y40143D02*
D03*
Y30300D02*
D03*
X339500Y161000D02*
D03*
Y151157D02*
D03*
Y141315D02*
D03*
X339000Y106000D02*
D03*
Y96157D02*
D03*
Y86315D02*
D03*
X78173Y193622D02*
D03*
X88173D02*
D03*
X98173D02*
D03*
X108173D02*
D03*
X118173D02*
D03*
X128173D02*
D03*
X138173D02*
D03*
X148173D02*
D03*
X158173D02*
D03*
X168173D02*
D03*
X184173Y203622D02*
D03*
Y193622D02*
D03*
X194173Y203622D02*
D03*
Y193622D02*
D03*
X204173Y203622D02*
D03*
Y193622D02*
D03*
X214173Y203622D02*
D03*
Y193622D02*
D03*
X224173Y203622D02*
D03*
Y193622D02*
D03*
X234173Y203622D02*
D03*
Y193622D02*
D03*
X244173Y203622D02*
D03*
Y193622D02*
D03*
X254173Y203622D02*
D03*
Y193622D02*
D03*
X184173Y13622D02*
D03*
Y23622D02*
D03*
X174173Y13622D02*
D03*
Y23622D02*
D03*
X164173Y13622D02*
D03*
Y23622D02*
D03*
X154173Y13622D02*
D03*
Y23622D02*
D03*
X144173Y13622D02*
D03*
Y23622D02*
D03*
X134173Y13622D02*
D03*
Y23622D02*
D03*
X124173Y13622D02*
D03*
Y23622D02*
D03*
X114173Y13622D02*
D03*
Y23622D02*
D03*
X254173Y13622D02*
D03*
Y23622D02*
D03*
X244173Y13622D02*
D03*
Y23622D02*
D03*
X234173Y13622D02*
D03*
Y23622D02*
D03*
X224173Y13622D02*
D03*
Y23622D02*
D03*
X214173Y13622D02*
D03*
Y23622D02*
D03*
X204173D02*
D03*
X168173Y203622D02*
D03*
X158173D02*
D03*
X148173D02*
D03*
X138173D02*
D03*
X128173D02*
D03*
X118173D02*
D03*
X108173D02*
D03*
X98173D02*
D03*
X88173D02*
D03*
X78173D02*
D03*
X204173Y13622D02*
D03*
D52*
X188799Y56500D02*
D03*
Y50988D02*
D03*
X171870D02*
D03*
Y56500D02*
D03*
X177382Y50988D02*
D03*
Y56500D02*
D03*
X182500Y50988D02*
D03*
Y56500D02*
D03*
X162815Y50988D02*
D03*
Y56500D02*
D03*
X198248Y50988D02*
D03*
Y56500D02*
D03*
X189899Y114600D02*
D03*
Y109088D02*
D03*
X172970D02*
D03*
Y114600D02*
D03*
X178482Y109088D02*
D03*
Y114600D02*
D03*
X183600Y109088D02*
D03*
Y114600D02*
D03*
X163915Y109088D02*
D03*
Y114600D02*
D03*
X199348Y109088D02*
D03*
Y114600D02*
D03*
X275400Y144583D02*
D03*
X269888D02*
D03*
Y161512D02*
D03*
X275400D02*
D03*
X269888Y156000D02*
D03*
X275400D02*
D03*
X269888Y150882D02*
D03*
X275400D02*
D03*
X269888Y170567D02*
D03*
X275400D02*
D03*
X269888Y135134D02*
D03*
X275400D02*
D03*
D53*
X321705Y189642D02*
D03*
X347295D02*
D03*
Y207358D02*
D03*
X57229Y52800D02*
D03*
D54*
X24909Y21500D02*
D03*
D55*
X40500D02*
D03*
D56*
X72921Y168600D02*
D03*
D57*
X86700D02*
D03*
D58*
X212000Y94100D02*
D03*
X221700Y75850D02*
D03*
X190500Y74600D02*
D03*
X186500Y70600D02*
D03*
X196000Y74300D02*
D03*
X147800Y34600D02*
D03*
X227200Y75700D02*
D03*
X234300Y76500D02*
D03*
X240700Y75400D02*
D03*
X171700Y84900D02*
D03*
X167500Y80200D02*
D03*
X202800Y163600D02*
D03*
X200600Y169000D02*
D03*
X203100Y158400D02*
D03*
X250700Y114800D02*
D03*
X205900Y101600D02*
D03*
X156500Y80000D02*
D03*
X151200Y85200D02*
D03*
X127800Y78400D02*
D03*
X248100Y76200D02*
D03*
X208600Y97400D02*
D03*
X251200Y109600D02*
D03*
X244900Y134200D02*
D03*
X199200Y154900D02*
D03*
X191654Y143488D02*
D03*
X188954Y149717D02*
D03*
X182802Y153900D02*
D03*
X196600Y146200D02*
D03*
X146700Y106700D02*
D03*
X144300Y126300D02*
D03*
X160000Y87400D02*
D03*
X172400Y93500D02*
D03*
X234000Y37400D02*
D03*
X182200Y35800D02*
D03*
X177600Y32700D02*
D03*
X227700Y131800D02*
D03*
X220300Y130300D02*
D03*
X225155Y127600D02*
D03*
X211400Y138900D02*
D03*
X217500Y134600D02*
D03*
X214100Y129700D02*
D03*
X227700Y137300D02*
D03*
X232400Y135600D02*
D03*
X250100Y181600D02*
D03*
X261600Y119600D02*
D03*
X244200Y139300D02*
D03*
X236400Y138000D02*
D03*
X164200Y140400D02*
D03*
X181700Y146900D02*
D03*
X180600Y141300D02*
D03*
X180900Y84900D02*
D03*
X293400Y165200D02*
D03*
X243900Y185300D02*
D03*
X258900Y180100D02*
D03*
X170300Y151400D02*
D03*
X165700Y153000D02*
D03*
X160000Y157300D02*
D03*
X170200Y156800D02*
D03*
X162900Y148200D02*
D03*
X157700Y146100D02*
D03*
X175200Y142700D02*
D03*
X170915Y139288D02*
D03*
X146900Y89100D02*
D03*
X141700Y88900D02*
D03*
X136900Y85900D02*
D03*
X249300Y98700D02*
D03*
X167200Y132600D02*
D03*
X319500Y110600D02*
D03*
X320100Y93900D02*
D03*
X319900Y99700D02*
D03*
Y105900D02*
D03*
X321500Y43400D02*
D03*
Y49200D02*
D03*
X321700Y54800D02*
D03*
X321600Y60200D02*
D03*
X285800Y61600D02*
D03*
X269700Y82000D02*
D03*
X255100Y86600D02*
D03*
X282500Y68000D02*
D03*
X293300Y96500D02*
D03*
X313800Y140400D02*
D03*
X321300Y160000D02*
D03*
X322050Y151300D02*
D03*
X73100Y106100D02*
D03*
X69600Y197400D02*
D03*
X192900Y160700D02*
D03*
X309800Y135200D02*
D03*
X312300Y153600D02*
D03*
X241600Y157100D02*
D03*
X269400Y195500D02*
D03*
X302100Y195000D02*
D03*
X310600Y204100D02*
D03*
X320900Y144800D02*
D03*
X321800Y172700D02*
D03*
X312500Y100200D02*
D03*
X209400Y172900D02*
D03*
X133600Y145300D02*
D03*
X246800Y146100D02*
D03*
X124100Y178700D02*
D03*
X99375Y116600D02*
D03*
X134900Y140602D02*
D03*
X131200Y107802D02*
D03*
X133800Y98900D02*
D03*
X121300Y109900D02*
D03*
X43700Y83400D02*
D03*
X250150Y155250D02*
D03*
X234625Y155100D02*
D03*
X254800Y137800D02*
D03*
X254600Y144100D02*
D03*
X114400Y73500D02*
D03*
X221500Y185300D02*
D03*
X139700Y166800D02*
D03*
X151115Y146588D02*
D03*
X141573Y147800D02*
D03*
X214600Y159400D02*
D03*
X127150Y159750D02*
D03*
X261700Y193700D02*
D03*
X121700Y185400D02*
D03*
X128000Y175800D02*
D03*
X243400Y37100D02*
D03*
D59*
X308900Y189100D02*
D03*
X75500Y145000D02*
D03*
M02*
